<?xml version="1.0" encoding="UTF-8"?>
<svg xmlns="http://www.w3.org/2000/svg" xmlns:xlink="http://www.w3.org/1999/xlink" width="709px" height="550px" viewBox="0 0 708 550" version="1.1">
<g id="surface1">
<path style=" stroke:none;fill-rule:nonzero;fill:rgb(94.901961%,94.901961%,94.901961%);fill-opacity:1;" d="M 92.367188 242.027344 C 66.011719 230.949219 44.882812 210.207031 33.308594 184.050781 C 26.835938 169.234375 23.671875 153.164062 21.875 137.09375 C 20.105469 121.324219 19.746094 104.691406 26.527344 90.347656 C 34.078125 74.375 49.457031 63.539062 67.027344 61.808594 C 84.601562 60.078125 101.792969 67.707031 112.3125 81.898438 C 116.761719 87.90625 119.890625 95.113281 119.972656 102.589844 C 120.136719 118.273438 107.539062 130.859375 102.007812 145.535156 C 96.296875 160.703125 98.355469 177.507812 99.328125 193.6875 C 100.296875 209.863281 99.683594 227.40625 89.871094 240.300781 "/>
<path style=" stroke:none;fill-rule:nonzero;fill:rgb(94.901961%,94.901961%,94.901961%);fill-opacity:1;" d="M 565.03125 440.339844 C 592.863281 433.816406 617.152344 416.894531 632.921875 393.035156 C 641.777344 379.503906 647.574219 364.1875 652.027344 348.644531 C 656.394531 333.390625 659.523438 317.050781 655.226562 301.777344 C 650.441406 284.765625 637.089844 271.515625 620.050781 266.878906 C 603.011719 262.238281 584.789062 266.890625 572.054688 279.128906 C 566.664062 284.308594 562.378906 290.890625 561.050781 298.25 C 558.273438 313.683594 568.601562 328.199219 571.605469 343.59375 C 574.710938 359.5 569.878906 375.726562 566.226562 391.515625 C 562.570312 407.304688 560.253906 424.703125 567.777344 439.054688 "/>
<path style=" stroke:none;fill-rule:nonzero;fill:rgb(90.196078%,90.196078%,90.196078%);fill-opacity:1;" d="M 352.773438 415.15625 C 313.105469 415.28125 274.507812 402.261719 243.003906 378.128906 C 212.164062 354.546875 189.628906 321.742188 178.675781 284.476562 L 180.242188 284.023438 C 202.398438 360.269531 273.34375 413.523438 352.773438 413.523438 C 376.523438 413.566406 400.042969 408.871094 421.957031 399.707031 L 422.589844 401.214844 C 400.476562 410.460938 376.742188 415.199219 352.773438 415.15625 Z M 352.773438 415.15625 "/>
<path style=" stroke:none;fill-rule:nonzero;fill:rgb(90.196078%,90.196078%,90.196078%);fill-opacity:1;" d="M 524.269531 179.992188 C 500.703125 104.59375 431.785156 53.9375 352.773438 53.9375 C 329.363281 53.894531 306.167969 58.457031 284.515625 67.371094 L 283.894531 65.859375 C 342.8125 41.710938 410.0625 50.210938 461.128906 88.261719 C 491.6875 111.171875 514.308594 143.078125 525.828125 179.503906 Z M 524.269531 179.992188 "/>
<path style=" stroke:none;fill-rule:nonzero;fill:rgb(24.705882%,23.921569%,33.72549%);fill-opacity:1;" d="M 573.257812 472.363281 C 498.964844 472.363281 438.519531 411.871094 438.519531 337.519531 C 438.519531 263.164062 498.964844 202.675781 573.257812 202.675781 C 647.554688 202.675781 708 263.164062 708 337.519531 C 708 411.871094 647.554688 472.363281 573.257812 472.363281 Z M 573.257812 204.308594 C 499.863281 204.308594 440.152344 264.066406 440.152344 337.519531 C 440.152344 410.972656 499.863281 470.726562 573.257812 470.726562 C 646.65625 470.726562 706.367188 410.972656 706.367188 337.519531 C 706.367188 264.066406 646.65625 204.308594 573.257812 204.308594 Z M 573.257812 204.308594 "/>
<path style=" stroke:none;fill-rule:nonzero;fill:rgb(24.705882%,23.921569%,33.72549%);fill-opacity:1;" d="M 134.742188 269.6875 C 60.445312 269.6875 0 209.199219 0 134.84375 C 0 60.492188 60.445312 0 134.742188 0 C 209.035156 0 269.480469 60.492188 269.480469 134.84375 C 269.480469 209.199219 209.035156 269.6875 134.742188 269.6875 Z M 134.742188 1.632812 C 61.34375 1.632812 1.632812 61.390625 1.632812 134.84375 C 1.632812 208.296875 61.34375 268.054688 134.742188 268.054688 C 208.136719 268.054688 267.847656 208.296875 267.847656 134.84375 C 267.847656 61.390625 208.136719 1.632812 134.742188 1.632812 Z M 134.742188 1.632812 "/>
<path style=" stroke:none;fill-rule:nonzero;fill:rgb(62.745098%,38.039216%,41.568627%);fill-opacity:1;" d="M 124.265625 135.601562 L 112.367188 158.730469 L 124.113281 165.46875 C 124.113281 165.46875 132.171875 139.492188 132.410156 138.503906 C 134.898438 137.488281 136.5 135.039062 136.441406 132.351562 C 136.378906 129.660156 134.664062 127.289062 132.132812 126.386719 C 129.601562 125.484375 126.777344 126.238281 125.03125 128.285156 C 123.285156 130.328125 122.980469 133.238281 124.265625 135.601562 Z M 124.265625 135.601562 "/>
<path style=" stroke:none;fill-rule:nonzero;fill:rgb(24.705882%,23.921569%,33.72549%);fill-opacity:1;" d="M 63.203125 138.746094 C 68.507812 158.425781 87.585938 170.925781 103.429688 185.910156 C 107.371094 187.296875 111.71875 186.953125 115.398438 184.96875 C 119.078125 182.984375 121.753906 179.542969 122.765625 175.484375 L 128.105469 154.570312 L 114.535156 154.207031 L 108.917969 160.316406 L 90.746094 147.359375 Z M 63.203125 138.746094 "/>
<path style=" stroke:none;fill-rule:nonzero;fill:rgb(100%,71.372549%,71.372549%);fill-opacity:1;" d="M 553.226562 358.472656 C 558.019531 358.785156 561.691406 362.859375 561.507812 367.660156 C 561.480469 368.128906 561.417969 368.597656 561.316406 369.054688 L 587.480469 385.550781 L 573.015625 391.953125 L 550.386719 375.304688 C 546.546875 374.132812 543.980469 370.515625 544.136719 366.5 C 544.363281 361.832031 548.328125 358.230469 552.996094 358.457031 C 553.074219 358.460938 553.152344 358.464844 553.226562 358.472656 Z M 553.226562 358.472656 "/>
<path style=" stroke:none;fill-rule:nonzero;fill:rgb(42.352941%,38.823529%,100%);fill-opacity:1;" d="M 578.460938 378.054688 L 571.976562 391.441406 L 597.613281 407.957031 C 601.324219 410.363281 606.015625 410.679688 610.015625 408.785156 C 614.925781 406.433594 617.6875 401.117188 616.792969 395.742188 L 608.472656 348.207031 C 607.3125 341.300781 600.960938 336.507812 594.003906 337.289062 C 587.144531 338.039062 582.191406 344.214844 582.941406 351.082031 C 582.953125 351.210938 582.972656 351.339844 582.988281 351.464844 C 583.050781 351.921875 583.140625 352.375 583.25 352.824219 L 592.332031 386.628906 Z M 578.460938 378.054688 "/>
<path style=" stroke:none;fill-rule:nonzero;fill:rgb(24.705882%,23.921569%,33.72549%);fill-opacity:1;" d="M 555.15625 383.480469 L 545.5 358.546875 C 544.816406 356.773438 545.695312 354.773438 547.46875 354.085938 L 552.898438 351.976562 C 554.675781 351.292969 556.671875 352.171875 557.359375 353.949219 L 567.015625 378.882812 C 567.703125 380.660156 566.820312 382.65625 565.046875 383.347656 L 559.617188 385.453125 C 557.84375 386.136719 555.847656 385.257812 555.15625 383.480469 Z M 555.15625 383.480469 "/>
<path style=" stroke:none;fill-rule:nonzero;fill:rgb(42.352941%,38.823529%,100%);fill-opacity:1;" d="M 548.597656 355.109375 C 547.640625 355.480469 547.167969 356.558594 547.535156 357.515625 L 557.191406 382.449219 C 557.5625 383.40625 558.640625 383.878906 559.597656 383.511719 L 565.027344 381.402344 C 565.980469 381.03125 566.457031 379.957031 566.085938 379 L 556.433594 354.066406 C 556.058594 353.109375 554.984375 352.632812 554.027344 353.003906 Z M 548.597656 355.109375 "/>
<path style=" stroke:none;fill-rule:nonzero;fill:rgb(100%,72.156863%,72.156863%);fill-opacity:1;" d="M 613.304688 435.507812 L 576.636719 435.507812 L 576.636719 398.8125 L 613.304688 398.8125 Z M 613.304688 435.507812 "/>
<path style=" stroke:none;fill-rule:nonzero;fill:rgb(100%,71.372549%,71.372549%);fill-opacity:1;" d="M 489.679688 506.886719 L 475.675781 502.167969 L 467.875 540.316406 L 477.363281 543.511719 Z M 489.679688 506.886719 "/>
<path style=" stroke:none;fill-rule:nonzero;fill:rgb(100%,71.372549%,71.372549%);fill-opacity:1;" d="M 514.515625 499.628906 L 500.136719 503.03125 L 513.65625 539.539062 L 523.402344 537.234375 Z M 514.515625 499.628906 "/>
<path style=" stroke:none;fill-rule:nonzero;fill:rgb(18.431373%,18.039216%,25.490196%);fill-opacity:1;" d="M 611.992188 445.09375 C 619.339844 494.128906 521.46875 465.140625 521.46875 465.140625 L 490.78125 507.503906 L 472.816406 504.234375 C 472.816406 504.234375 480.902344 478.800781 495.335938 444.707031 C 501.75 429.566406 574.546875 433.265625 574.546875 433.265625 L 576.058594 421.394531 L 617.707031 420.578125 Z M 611.992188 445.09375 "/>
<path style=" stroke:none;fill-rule:nonzero;fill:rgb(18.431373%,18.039216%,25.490196%);fill-opacity:1;" d="M 518.378906 454.621094 L 491.722656 455.234375 C 495.996094 492.015625 499.765625 506.6875 499.765625 506.6875 L 515.28125 501.78125 Z M 518.378906 454.621094 "/>
<path style=" stroke:none;fill-rule:nonzero;fill:rgb(42.352941%,38.823529%,100%);fill-opacity:1;" d="M 591.042969 339.179688 L 598.421875 329.683594 L 608.953125 329.226562 L 610.003906 338.15625 L 615.21875 340.566406 C 620.429688 360.371094 621.234375 381.074219 617.574219 401.226562 C 616.152344 402.566406 615.566406 404.574219 616.039062 406.472656 L 616.378906 407.820312 L 616.347656 407.871094 C 615.238281 409.625 614.859375 411.742188 615.300781 413.773438 L 617.789062 418.203125 C 619.601562 421.425781 619.898438 425.285156 618.609375 428.75 C 617.320312 432.214844 614.574219 434.941406 611.097656 436.195312 C 595.785156 441.75 581.429688 443.820312 570.808594 428.230469 L 567.46875 373.910156 Z M 591.042969 339.179688 "/>
<path style=" stroke:none;fill-rule:nonzero;fill:rgb(100%,72.156863%,72.156863%);fill-opacity:1;" d="M 618.242188 312.726562 C 618.242188 323.484375 609.527344 332.207031 598.773438 332.207031 C 588.023438 332.207031 579.308594 323.484375 579.308594 312.726562 C 579.308594 301.964844 588.023438 293.242188 598.773438 293.242188 C 609.527344 293.242188 618.242188 301.964844 618.242188 312.726562 Z M 618.242188 312.726562 "/>
<path style=" stroke:none;fill-rule:nonzero;fill:rgb(18.431373%,18.039216%,25.490196%);fill-opacity:1;" d="M 608.546875 289.242188 C 616.789062 289.398438 623.328125 297.050781 623.148438 306.328125 C 629.246094 312.699219 627.230469 320.492188 622.132812 328.828125 C 612.8125 329.910156 610.636719 330.359375 602.460938 333.699219 L 601.382812 328.660156 L 598.941406 335.222656 C 596.863281 336.179688 594.800781 337.230469 592.753906 338.378906 C 591.285156 331.625 591.648438 325.066406 595.601562 319.347656 C 599.113281 314.273438 590.566406 308.242188 584.457031 309.09375 L 584.542969 304.433594 L 583.007812 309.066406 C 580.628906 310.820312 577.992188 310.183594 575.289062 308.917969 C 570.90625 286.128906 604.835938 279.894531 608.546875 289.242188 Z M 608.546875 289.242188 "/>
<path style=" stroke:none;fill-rule:nonzero;fill:rgb(18.431373%,18.039216%,25.490196%);fill-opacity:1;" d="M 481.679688 549.964844 L 475.4375 549.148438 L 475.09375 543.109375 L 471.472656 548.632812 L 454.925781 546.46875 C 453.296875 546.253906 451.996094 545.007812 451.714844 543.390625 C 451.433594 541.769531 452.238281 540.15625 453.699219 539.40625 L 468.105469 532 L 468.882812 526.039062 L 482.671875 528.6875 Z M 481.679688 549.964844 "/>
<path style=" stroke:none;fill-rule:nonzero;fill:rgb(18.431373%,18.039216%,25.490196%);fill-opacity:1;" d="M 526.980469 546.527344 L 520.738281 547.332031 L 518.867188 541.578125 L 516.773438 547.839844 L 500.222656 549.972656 C 498.59375 550.183594 497.015625 549.308594 496.332031 547.816406 C 495.648438 546.320312 496.011719 544.554688 497.234375 543.457031 L 509.277344 532.617188 L 508.511719 526.65625 L 522.519531 525.699219 Z M 526.980469 546.527344 "/>
<path style=" stroke:none;fill-rule:nonzero;fill:rgb(100%,71.372549%,71.372549%);fill-opacity:1;" d="M 555.574219 363.027344 C 560.367188 363.34375 564.039062 367.417969 563.855469 372.21875 C 563.828125 372.6875 563.765625 373.152344 563.664062 373.613281 L 589.828125 390.109375 L 575.363281 396.511719 L 552.734375 379.863281 C 548.894531 378.691406 546.328125 375.074219 546.484375 371.058594 C 546.710938 366.390625 550.675781 362.789062 555.34375 363.015625 C 555.421875 363.019531 555.5 363.023438 555.574219 363.027344 Z M 555.574219 363.027344 "/>
<path style=" stroke:none;fill-rule:nonzero;fill:rgb(42.352941%,38.823529%,100%);fill-opacity:1;" d="M 580.808594 382.609375 L 574.324219 396 L 599.960938 412.511719 C 603.671875 414.921875 608.363281 415.238281 612.363281 413.34375 C 617.273438 410.992188 620.035156 405.671875 619.140625 400.300781 L 610.820312 352.765625 C 609.660156 345.859375 603.308594 341.0625 596.351562 341.847656 C 589.492188 342.597656 584.539062 348.773438 585.289062 355.636719 C 585.300781 355.765625 585.316406 355.894531 585.335938 356.023438 C 585.398438 356.480469 585.488281 356.933594 585.597656 357.382812 L 594.679688 391.1875 Z M 580.808594 382.609375 "/>
<path style=" stroke:none;fill-rule:nonzero;fill:rgb(62.745098%,38.039216%,41.568627%);fill-opacity:1;" d="M 90.164062 380.027344 L 98.390625 383.742188 L 116.617188 353.757812 L 104.476562 348.277344 Z M 90.164062 380.027344 "/>
<path style=" stroke:none;fill-rule:nonzero;fill:rgb(18.431373%,18.039216%,25.490196%);fill-opacity:1;" d="M 86.003906 388.484375 L 111.296875 399.902344 L 111.441406 399.582031 C 113.894531 394.140625 111.476562 387.742188 106.039062 385.285156 L 103 379.691406 L 92.796875 379.308594 L 90.589844 378.3125 Z M 86.003906 388.484375 "/>
<path style=" stroke:none;fill-rule:nonzero;fill:rgb(62.745098%,38.039216%,41.568627%);fill-opacity:1;" d="M 192.03125 339.253906 L 200.71875 336.816406 L 195.445312 302.121094 L 182.625 305.722656 Z M 192.03125 339.253906 "/>
<path style=" stroke:none;fill-rule:nonzero;fill:rgb(18.431373%,18.039216%,25.490196%);fill-opacity:1;" d="M 194.269531 348.410156 L 220.984375 340.90625 L 220.890625 340.566406 C 219.277344 334.820312 213.316406 331.46875 207.574219 333.082031 L 201.652344 330.75 L 193.589844 337.011719 L 191.257812 337.667969 Z M 194.269531 348.410156 "/>
<path style=" stroke:none;fill-rule:nonzero;fill:rgb(18.431373%,18.039216%,25.490196%);fill-opacity:1;" d="M 60.558594 237.878906 C 60.78125 244.308594 74.449219 261.664062 81.636719 264.148438 C 82.859375 264.574219 83.574219 264.808594 83.574219 264.808594 L 86.074219 264.050781 L 116.375 254.875 C 121.679688 258 137.503906 259.585938 150.492188 260.382812 C 160.828125 261.011719 166.589844 266.417969 166.589844 266.417969 C 169.636719 289.625 178.429688 306.546875 188.566406 327.339844 L 200.730469 325.222656 L 189.238281 247.765625 C 188.730469 244.347656 186.234375 241.5625 182.890625 240.6875 L 100.214844 219.042969 C 100.214844 219.042969 95.65625 218.21875 86.039062 222.859375 C 70.207031 230.503906 60.398438 233.199219 60.558594 237.878906 Z M 60.558594 237.878906 "/>
<path style=" stroke:none;fill-rule:nonzero;fill:rgb(18.431373%,18.039216%,25.490196%);fill-opacity:1;" d="M 76.355469 236.632812 C 73.582031 242.441406 77.691406 264.148438 82.917969 269.679688 L 84.304688 270.625 L 84.773438 270.871094 C 87.910156 281.480469 121.554688 312.523438 121.554688 312.523438 C 110.1875 327.007812 100.0625 344.683594 95.542969 364.488281 L 108.683594 369.292969 L 145.671875 314.03125 C 147.652344 311.070312 147.613281 307.191406 145.5625 304.273438 L 130.476562 282.761719 L 105.886719 235.097656 C 88.316406 234.554688 78.375 232.410156 76.355469 236.632812 Z M 76.355469 236.632812 "/>
<path style=" stroke:none;fill-rule:nonzero;fill:rgb(24.705882%,23.921569%,33.72549%);fill-opacity:1;" d="M 61.054688 240.40625 C 61.011719 240.40625 60.050781 237.882812 60.03125 237.878906 C 59.703125 237.785156 55.269531 237.347656 56.265625 230.003906 L 57.542969 221.917969 L 56.296875 214.78125 L 54.203125 212.6875 L 57.566406 209.316406 L 55.503906 194.039062 L 54.710938 163.445312 C 52.726562 152.9375 53.242188 143.328125 62.875 138.699219 L 73.914062 128.453125 L 86.476562 128.300781 L 100.730469 136.757812 L 107.636719 150.535156 L 110.3125 187.871094 L 112.3125 192.542969 L 112.140625 192.695312 C 112.128906 192.707031 110.796875 193.914062 110.199219 194.578125 C 109.910156 194.988281 110.453125 198.066406 111.125 200.679688 L 111.984375 207.128906 L 109.816406 208.679688 L 112.636719 212.015625 L 120.332031 225.03125 L 119.871094 224.917969 C 119.351562 224.785156 114.511719 232.054688 61.410156 240.136719 C 61.164062 240.175781 61.15625 240.40625 61.054688 240.40625 Z M 61.054688 240.40625 "/>
<path style=" stroke:none;fill-rule:nonzero;fill:rgb(24.705882%,23.921569%,33.72549%);fill-opacity:1;" d="M 121.859375 159.601562 L 117.464844 157.304688 C 116.027344 156.550781 115.46875 154.777344 116.21875 153.339844 L 126.742188 133.152344 C 127.496094 131.714844 129.265625 131.160156 130.707031 131.90625 L 135.101562 134.203125 C 136.539062 134.957031 137.09375 136.730469 136.347656 138.167969 L 125.820312 158.355469 C 125.070312 159.792969 123.296875 160.347656 121.859375 159.601562 Z M 121.859375 159.601562 "/>
<path style=" stroke:none;fill-rule:nonzero;fill:rgb(42.352941%,38.823529%,100%);fill-opacity:1;" d="M 129.652344 132.667969 C 128.878906 132.265625 127.925781 132.566406 127.519531 133.339844 L 116.996094 153.527344 C 116.589844 154.300781 116.890625 155.257812 117.664062 155.664062 L 122.0625 157.957031 C 122.835938 158.363281 123.789062 158.0625 124.195312 157.289062 L 134.722656 137.101562 C 135.125 136.324219 134.824219 135.371094 134.050781 134.964844 Z M 129.652344 132.667969 "/>
<path style=" stroke:none;fill-rule:nonzero;fill:rgb(62.745098%,38.039216%,41.568627%);fill-opacity:1;" d="M 100.988281 107.570312 C 100.988281 117.496094 92.945312 125.542969 83.027344 125.542969 C 73.105469 125.542969 65.066406 117.496094 65.066406 107.570312 C 65.066406 97.640625 73.105469 89.59375 83.027344 89.59375 C 92.945312 89.59375 100.988281 97.640625 100.988281 107.570312 Z M 100.988281 107.570312 "/>
<path style=" stroke:none;fill-rule:nonzero;fill:rgb(18.431373%,18.039216%,25.490196%);fill-opacity:1;" d="M 74.191406 119.148438 C 73.40625 118.519531 72.421875 118.191406 71.417969 118.214844 C 70.785156 118.316406 70.230469 118.6875 69.886719 119.230469 C 69.699219 119.46875 69.398438 119.59375 69.097656 119.566406 C 67.179688 119.636719 63.09375 116.078125 62.816406 109.210938 C 62.683594 105.949219 60.730469 100.429688 63.835938 97.4375 C 64.046875 96.230469 66.46875 83.757812 77.402344 83.414062 C 88.59375 83.058594 96.042969 85.308594 97.832031 89.578125 C 99.074219 92.964844 100.019531 96.457031 100.65625 100.011719 L 101.03125 102.121094 L 100.152344 100.164062 C 100.136719 100.128906 98.539062 96.621094 95.574219 95.453125 C 95.523438 96.023438 95.378906 96.582031 95.144531 97.101562 C 94.175781 99.203125 91.738281 100.570312 88.929688 100.59375 C 86.988281 100.53125 85.074219 100.121094 83.28125 99.378906 C 83.695312 99.976562 83.722656 100.761719 83.34375 101.386719 C 82.96875 102.011719 82.261719 102.355469 81.539062 102.265625 L 81.019531 102.203125 C 80.683594 102.160156 80.363281 102.363281 80.257812 102.6875 C 80.15625 103.011719 80.300781 103.367188 80.597656 103.527344 L 81.054688 103.769531 L 80.5 104.039062 C 75.910156 106.089844 73.277344 110.980469 74.09375 115.949219 L 74.742188 119.589844 Z M 74.191406 119.148438 "/>
<path style=" stroke:none;fill-rule:nonzero;fill:rgb(90.196078%,90.196078%,90.196078%);fill-opacity:1;" d="M 358.582031 396.914062 C 357.574219 396.960938 356.648438 396.371094 356.257812 395.441406 C 355.871094 394.511719 356.101562 393.4375 356.84375 392.753906 L 357.007812 392.101562 C 356.984375 392.046875 356.964844 391.996094 356.941406 391.945312 C 355.929688 389.550781 353.582031 388 350.988281 388.011719 C 348.390625 388.019531 346.054688 389.589844 345.0625 391.988281 C 343.121094 396.671875 340.644531 401.363281 340.035156 406.3125 C 339.769531 408.503906 339.882812 410.722656 340.371094 412.871094 C 335.808594 402.910156 333.4375 392.082031 333.421875 381.121094 C 333.421875 378.371094 333.574219 375.625 333.878906 372.890625 C 334.132812 370.648438 334.484375 368.425781 334.929688 366.214844 C 337.375 354.234375 342.628906 343 350.253906 333.441406 C 353.945312 331.425781 356.929688 328.328125 358.808594 324.5625 C 359.488281 323.207031 359.96875 321.761719 360.234375 320.273438 C 359.816406 320.328125 359.394531 320.359375 358.976562 320.386719 C 358.847656 320.394531 358.710938 320.402344 358.582031 320.410156 L 358.53125 320.410156 C 357.597656 320.453125 356.726562 319.941406 356.304688 319.105469 C 355.882812 318.269531 355.992188 317.265625 356.582031 316.535156 C 356.761719 316.316406 356.941406 316.09375 357.121094 315.871094 C 357.394531 315.53125 357.675781 315.195312 357.945312 314.855469 C 357.980469 314.824219 358.007812 314.789062 358.035156 314.753906 C 358.351562 314.363281 358.664062 313.980469 358.976562 313.589844 C 358.40625 312.699219 357.632812 311.957031 356.726562 311.414062 C 353.578125 309.566406 349.238281 310.84375 346.964844 313.695312 C 344.683594 316.542969 344.253906 320.539062 345.046875 324.097656 C 345.824219 327.125 347.113281 330 348.855469 332.59375 C 348.683594 332.8125 348.507812 333.023438 348.335938 333.242188 C 345.21875 337.257812 342.5 341.570312 340.21875 346.113281 C 340.773438 341.023438 340.113281 335.871094 338.289062 331.085938 C 336.441406 326.625 332.980469 322.867188 329.929688 319.011719 C 326.265625 314.382812 318.753906 316.402344 318.109375 322.273438 C 318.105469 322.332031 318.097656 322.386719 318.09375 322.445312 C 318.542969 322.699219 318.988281 322.972656 319.421875 323.257812 C 320.539062 324.003906 321.082031 325.359375 320.789062 326.667969 C 320.5 327.980469 319.4375 328.976562 318.109375 329.183594 L 318.042969 329.191406 C 318.207031 330.828125 318.492188 332.445312 318.898438 334.035156 C 321.277344 343.011719 327.292969 350.585938 335.492188 354.9375 C 335.757812 355.074219 336.015625 355.210938 336.28125 355.34375 C 333.992188 361.835938 332.554688 368.601562 332.007812 375.464844 C 331.699219 379.515625 331.71875 383.585938 332.0625 387.632812 L 332.042969 387.488281 C 331.167969 382.988281 328.769531 378.925781 325.253906 375.992188 C 320.027344 371.695312 312.640625 370.113281 307.003906 366.660156 C 305.78125 365.871094 304.210938 365.871094 302.984375 366.648438 C 301.757812 367.429688 301.09375 368.851562 301.285156 370.292969 C 301.292969 370.34375 301.300781 370.394531 301.308594 370.445312 C 302.148438 370.789062 302.964844 371.183594 303.757812 371.625 C 304.210938 371.882812 304.652344 372.152344 305.089844 372.441406 C 306.203125 373.1875 306.746094 374.542969 306.457031 375.851562 C 306.167969 377.164062 305.101562 378.160156 303.777344 378.367188 L 303.710938 378.375 C 303.664062 378.382812 303.621094 378.390625 303.574219 378.394531 C 305.011719 381.828125 307.027344 384.988281 309.53125 387.734375 C 315.792969 394.457031 324.542969 398.296875 333.722656 398.355469 L 333.730469 398.355469 C 334.960938 403.71875 336.75 408.9375 339.058594 413.929688 L 358.105469 413.929688 C 358.171875 413.71875 358.234375 413.5 358.296875 413.289062 C 356.53125 413.398438 354.761719 413.292969 353.027344 412.972656 C 354.4375 411.238281 355.851562 409.492188 357.265625 407.753906 C 357.296875 407.722656 357.324219 407.6875 357.351562 407.652344 C 358.070312 406.765625 358.792969 405.882812 359.511719 404.996094 C 359.546875 402.273438 359.238281 399.558594 358.582031 396.914062 Z M 358.582031 396.914062 "/>
<path style=" stroke:none;fill-rule:nonzero;fill:rgb(90.196078%,90.196078%,90.196078%);fill-opacity:1;" d="M 450.121094 101.390625 C 450.875 102.0625 451.128906 103.132812 450.757812 104.070312 C 450.386719 105.007812 449.472656 105.613281 448.464844 105.585938 L 447.890625 105.9375 C 447.871094 105.992188 447.851562 106.042969 447.828125 106.097656 C 446.886719 108.515625 447.484375 111.265625 449.351562 113.070312 C 451.214844 114.878906 453.980469 115.386719 456.367188 114.363281 C 461.023438 112.367188 466.066406 110.734375 469.957031 107.613281 C 471.675781 106.234375 473.144531 104.566406 474.292969 102.683594 C 470.613281 113.007812 464.757812 122.417969 457.125 130.273438 C 455.207031 132.246094 453.179688 134.105469 451.054688 135.851562 C 449.3125 137.277344 447.511719 138.628906 445.648438 139.894531 C 435.539062 146.769531 423.945312 151.144531 411.816406 152.664062 C 407.769531 151.527344 403.46875 151.664062 399.5 153.046875 C 398.070312 153.542969 396.714844 154.242188 395.484375 155.125 C 395.820312 155.375 396.148438 155.648438 396.464844 155.917969 C 396.5625 156.003906 396.667969 156.09375 396.765625 156.179688 L 396.800781 156.214844 C 397.5 156.835938 397.769531 157.8125 397.484375 158.703125 C 397.203125 159.597656 396.425781 160.242188 395.496094 160.351562 C 395.214844 160.382812 394.929688 160.417969 394.648438 160.449219 C 394.214844 160.503906 393.777344 160.546875 393.34375 160.601562 C 393.300781 160.601562 393.253906 160.605469 393.210938 160.613281 C 392.714844 160.671875 392.222656 160.726562 391.726562 160.785156 C 391.515625 161.824219 391.546875 162.894531 391.820312 163.917969 C 392.785156 167.4375 396.785156 169.554688 400.402344 169.105469 C 404.019531 168.65625 407.113281 166.09375 409.03125 162.992188 C 410.585938 160.28125 411.664062 157.324219 412.230469 154.246094 C 412.503906 154.210938 412.777344 154.183594 413.054688 154.144531 C 418.085938 153.449219 423.039062 152.261719 427.839844 150.597656 C 423.894531 153.859375 420.773438 158.007812 418.742188 162.707031 C 416.953125 167.195312 416.816406 172.300781 416.308594 177.195312 C 415.703125 183.070312 422.492188 186.867188 427.046875 183.113281 C 427.09375 183.078125 427.136719 183.042969 427.179688 183.003906 C 427.035156 182.503906 426.90625 182 426.796875 181.492188 C 426.515625 180.179688 427.070312 178.828125 428.195312 178.09375 C 429.316406 177.359375 430.773438 177.386719 431.867188 178.167969 L 431.921875 178.203125 C 432.945312 176.921875 433.871094 175.5625 434.6875 174.140625 C 439.242188 166.050781 440.21875 156.425781 437.382812 147.582031 C 437.289062 147.296875 437.195312 147.019531 437.097656 146.738281 C 443.265625 143.6875 449.011719 139.847656 454.191406 135.3125 C 457.238281 132.628906 460.0625 129.703125 462.636719 126.5625 L 462.550781 126.679688 C 460.039062 130.511719 458.925781 135.097656 459.398438 139.65625 C 460.144531 146.382812 464.328125 152.675781 465.957031 159.085938 C 466.285156 160.503906 467.40625 161.601562 468.828125 161.902344 C 470.253906 162.199219 471.71875 161.644531 472.589844 160.476562 C 472.617188 160.4375 472.648438 160.394531 472.675781 160.355469 C 472.3125 159.519531 472.003906 158.667969 471.746094 157.796875 C 471.601562 157.296875 471.472656 156.792969 471.363281 156.285156 C 471.082031 154.96875 471.636719 153.621094 472.761719 152.882812 C 473.882812 152.148438 475.339844 152.175781 476.433594 152.957031 L 476.488281 152.996094 C 476.527344 153.023438 476.5625 153.046875 476.597656 153.078125 C 477.964844 149.617188 478.722656 145.945312 478.84375 142.226562 C 479.050781 133.042969 475.464844 124.179688 468.929688 117.722656 L 468.925781 117.71875 C 471.78125 113.015625 474.140625 108.03125 475.96875 102.839844 L 462.332031 89.539062 C 462.132812 89.644531 461.9375 89.757812 461.746094 89.867188 C 463.085938 91.019531 464.28125 92.328125 465.300781 93.773438 C 463.078125 94.027344 460.847656 94.292969 458.625 94.546875 C 458.582031 94.550781 458.535156 94.554688 458.492188 94.558594 C 457.359375 94.695312 456.226562 94.820312 455.09375 94.957031 C 453.167969 96.878906 451.496094 99.042969 450.121094 101.390625 Z M 450.121094 101.390625 "/>
<path style=" stroke:none;fill-rule:nonzero;fill:rgb(62.745098%,38.039216%,41.568627%);fill-opacity:1;" d="M 121.808594 154.738281 L 104.636719 174.265625 L 114.386719 183.667969 C 114.386719 183.667969 128.53125 160.441406 129 159.542969 C 131.664062 159.160156 133.8125 157.179688 134.410156 154.554688 C 135.003906 151.933594 133.921875 149.214844 131.683594 147.722656 C 129.449219 146.226562 126.523438 146.269531 124.332031 147.828125 C 122.140625 149.386719 121.136719 152.132812 121.808594 154.738281 Z M 121.808594 154.738281 "/>
<path style=" stroke:none;fill-rule:nonzero;fill:rgb(24.705882%,23.921569%,33.72549%);fill-opacity:1;" d="M 61.820312 142.890625 C 62.175781 163.273438 77.632812 180.046875 89.347656 198.445312 C 92.832031 200.753906 97.132812 201.480469 101.183594 200.453125 C 105.234375 199.425781 108.667969 196.738281 110.640625 193.050781 L 120.910156 174.074219 L 107.839844 170.410156 L 100.902344 174.964844 L 86.4375 157.960938 Z M 61.820312 142.890625 "/>
</g>
</svg>
