<?xml version="1.0" encoding="UTF-8"?>
<svg xmlns="http://www.w3.org/2000/svg" xmlns:xlink="http://www.w3.org/1999/xlink" width="769px" height="500px" viewBox="0 0 769 500" version="1.1">
<g id="surface1">
<path style=" stroke:none;fill-rule:nonzero;fill:rgb(94.509804%,94.509804%,94.509804%);fill-opacity:1;" d="M 716.910156 470.65625 C 716.703125 479.65625 715.398438 488.578125 713.042969 497.160156 C 712.988281 497.359375 712.929688 497.554688 712.875 497.753906 L 698.4375 497.753906 C 698.449219 497.574219 698.46875 497.375 698.480469 497.160156 C 699.445312 484.347656 693.945312 407.296875 687.308594 393.960938 C 687.890625 395.042969 718.03125 429.945312 716.910156 470.65625 Z M 716.910156 470.65625 "/>
<path style=" stroke:none;fill-rule:nonzero;fill:rgb(94.509804%,94.509804%,94.509804%);fill-opacity:1;" d="M 715.828125 497.160156 C 715.707031 497.359375 715.582031 497.558594 715.453125 497.753906 L 704.621094 497.753906 C 704.703125 497.585938 704.796875 497.386719 704.90625 497.160156 C 706.699219 493.421875 711.992188 482.242188 716.910156 470.65625 C 722.191406 458.203125 727.039062 445.277344 726.632812 440.601562 C 726.757812 441.65625 730.414062 473.816406 715.828125 497.160156 Z M 715.828125 497.160156 "/>
<path style=" stroke:none;fill-rule:nonzero;fill:rgb(94.509804%,94.509804%,94.509804%);fill-opacity:1;" d="M 39.960938 477.628906 C 40.113281 484.3125 41.082031 490.941406 42.832031 497.3125 C 42.871094 497.460938 42.914062 497.605469 42.957031 497.753906 L 53.679688 497.753906 C 53.667969 497.621094 53.65625 497.472656 53.644531 497.3125 C 52.929688 487.796875 57.015625 430.574219 61.945312 420.667969 C 61.511719 421.472656 39.128906 447.394531 39.960938 477.628906 Z M 39.960938 477.628906 "/>
<path style=" stroke:none;fill-rule:nonzero;fill:rgb(94.509804%,94.509804%,94.509804%);fill-opacity:1;" d="M 40.765625 497.3125 C 40.851562 497.460938 40.945312 497.609375 41.042969 497.753906 L 49.085938 497.753906 C 49.027344 497.628906 48.957031 497.480469 48.875 497.3125 C 47.542969 494.535156 43.609375 486.234375 39.960938 477.628906 C 36.039062 468.378906 32.4375 458.78125 32.738281 455.304688 C 32.644531 456.089844 29.929688 479.976562 40.765625 497.3125 Z M 40.765625 497.3125 "/>
<path style=" stroke:none;fill-rule:nonzero;fill:rgb(79.607843%,79.607843%,79.607843%);fill-opacity:1;" d="M 563.859375 350.550781 C 482.867188 310.8125 409.59375 312.324219 340.574219 336.578125 C 234.230469 315.078125 161.410156 318.402344 114.699219 350.550781 L 114.699219 250.75 L 563.859375 250.75 Z M 563.859375 350.550781 "/>
<path style=" stroke:none;fill-rule:nonzero;fill:rgb(89.803922%,89.803922%,89.803922%);fill-opacity:1;" d="M 563.859375 323.105469 C 489.242188 283.964844 414.714844 281.4375 339.066406 323.105469 C 261.582031 297.277344 186.675781 297.546875 114.269531 323.105469 L 114.269531 19.710938 C 191.25 -6.886719 266.132812 -6.246094 339.066406 19.710938 C 416.105469 -6.160156 491.101562 -6.980469 563.859375 19.710938 Z M 563.859375 323.105469 "/>
<path style=" stroke:none;fill-rule:nonzero;fill:rgb(100%,100%,100%);fill-opacity:1;" d="M 134.492188 57.359375 L 131.980469 49.925781 C 132.964844 49.480469 156.472656 38.960938 190.96875 33.59375 C 222.863281 28.632812 270.382812 27.445312 315.640625 49.976562 L 312.917969 57.308594 C 269.171875 35.535156 223.058594 36.683594 192.074219 41.476562 C 158.351562 46.699219 134.726562 57.253906 134.492188 57.359375 Z M 134.492188 57.359375 "/>
<path style=" stroke:none;fill-rule:nonzero;fill:rgb(100%,100%,100%);fill-opacity:1;" d="M 134.492188 85.304688 L 131.980469 77.867188 C 132.964844 77.421875 156.472656 66.902344 190.96875 61.539062 C 222.863281 56.574219 270.382812 55.390625 315.640625 77.917969 L 312.917969 85.253906 C 269.171875 63.480469 223.058594 64.625 192.074219 69.421875 C 158.351562 74.640625 134.726562 85.199219 134.492188 85.304688 Z M 134.492188 85.304688 "/>
<path style=" stroke:none;fill-rule:nonzero;fill:rgb(100%,100%,100%);fill-opacity:1;" d="M 134.492188 113.25 L 131.980469 105.8125 C 132.964844 105.367188 156.472656 94.847656 190.96875 89.480469 C 222.863281 84.519531 270.382812 83.335938 315.640625 105.863281 L 312.917969 113.199219 C 269.171875 91.421875 223.058594 92.570312 192.074219 97.367188 C 158.351562 102.585938 134.726562 113.144531 134.492188 113.25 Z M 134.492188 113.25 "/>
<path style=" stroke:none;fill-rule:nonzero;fill:rgb(100%,100%,100%);fill-opacity:1;" d="M 134.492188 141.195312 L 131.980469 133.757812 C 132.964844 133.3125 156.472656 122.792969 190.96875 117.425781 C 222.863281 112.464844 270.382812 111.277344 315.640625 133.808594 L 312.917969 141.140625 C 269.171875 119.367188 223.058594 120.515625 192.074219 125.308594 C 158.351562 130.53125 134.726562 141.085938 134.492188 141.195312 Z M 134.492188 141.195312 "/>
<path style=" stroke:none;fill-rule:nonzero;fill:rgb(100%,100%,100%);fill-opacity:1;" d="M 134.492188 169.136719 L 131.980469 161.699219 C 132.964844 161.257812 156.472656 150.734375 190.96875 145.371094 C 222.863281 140.40625 270.382812 139.222656 315.640625 161.75 L 312.917969 169.085938 C 269.171875 147.3125 223.058594 148.457031 192.074219 153.253906 C 158.351562 158.472656 134.726562 169.03125 134.492188 169.136719 Z M 134.492188 169.136719 "/>
<path style=" stroke:none;fill-rule:nonzero;fill:rgb(100%,100%,100%);fill-opacity:1;" d="M 134.492188 197.082031 L 131.980469 189.644531 C 132.964844 189.199219 156.472656 178.679688 190.96875 173.3125 C 222.863281 168.351562 270.382812 167.167969 315.640625 189.695312 L 312.917969 197.03125 C 269.171875 175.253906 223.058594 176.402344 192.074219 181.199219 C 158.351562 186.417969 134.726562 196.976562 134.492188 197.082031 Z M 134.492188 197.082031 "/>
<path style=" stroke:none;fill-rule:nonzero;fill:rgb(42.352941%,38.823529%,100%);fill-opacity:1;" d="M 359.5 255.964844 L 356.992188 248.527344 C 357.976562 248.082031 381.480469 237.5625 415.980469 232.195312 C 447.875 227.234375 495.394531 226.050781 540.652344 248.578125 L 537.925781 255.914062 C 494.183594 234.136719 448.066406 235.285156 417.085938 240.078125 C 383.363281 245.300781 359.734375 255.859375 359.5 255.964844 Z M 359.5 255.964844 "/>
<path style=" stroke:none;fill-rule:nonzero;fill:rgb(100%,100%,100%);fill-opacity:1;" d="M 357.382812 202.335938 L 357.382812 49.710938 L 359.804688 48.835938 C 421.136719 26.65625 482.171875 26.660156 541.214844 48.847656 L 543.597656 49.742188 L 543.597656 202.132812 L 538.933594 200.09375 C 477.492188 173.246094 418.015625 173.230469 362.152344 200.042969 Z M 448.390625 171.945312 C 477.257812 171.945312 506.695312 178.175781 536.703125 190.632812 L 536.703125 55.558594 C 480.566406 35.066406 422.578125 35.078125 364.28125 55.589844 L 364.28125 190.445312 C 391.066406 178.230469 419.601562 171.953125 448.390625 171.945312 Z M 448.390625 171.945312 "/>
<path style=" stroke:none;fill-rule:nonzero;fill:rgb(42.352941%,38.823529%,100%);fill-opacity:1;" d="M 536.847656 252.007812 L 537.75 226.609375 L 568.738281 155.28125 C 569.613281 153.253906 571.035156 151.613281 572.792969 150.613281 C 574.96875 149.359375 577.484375 149.171875 579.78125 150.085938 C 582.449219 151.152344 584.535156 153.597656 585.417969 156.703125 C 585.605469 157.363281 585.738281 158.042969 585.8125 158.734375 C 586.03125 160.78125 585.71875 162.859375 584.914062 164.699219 L 553.882812 236.121094 Z M 536.847656 252.007812 "/>
<path style=" stroke:none;fill-rule:nonzero;fill:rgb(24.705882%,23.921569%,33.72549%);fill-opacity:1;" d="M 576.652344 150.015625 L 543.015625 227.441406 L 540.449219 225.945312 L 572.984375 151.0625 C 574.125 150.402344 575.378906 150.042969 576.652344 150.015625 Z M 576.652344 150.015625 "/>
<path style=" stroke:none;fill-rule:nonzero;fill:rgb(24.705882%,23.921569%,33.72549%);fill-opacity:1;" d="M 585.382812 158.796875 L 553.027344 233.269531 L 550.460938 231.777344 L 584.03125 154.511719 C 584.445312 155.242188 584.773438 156.03125 585.007812 156.859375 C 585.1875 157.488281 585.3125 158.136719 585.382812 158.796875 Z M 585.382812 158.796875 "/>
<path style=" stroke:none;fill-rule:nonzero;fill:rgb(24.705882%,23.921569%,33.72549%);fill-opacity:1;" d="M 582.160156 152.148438 L 548.152344 230.429688 L 545.585938 228.9375 L 579.640625 150.558594 C 580.003906 150.703125 580.355469 150.875 580.699219 151.074219 C 581.214844 151.375 581.707031 151.738281 582.160156 152.148438 Z M 582.160156 152.148438 "/>
<path style=" stroke:none;fill-rule:nonzero;fill:rgb(24.705882%,23.921569%,33.72549%);fill-opacity:1;" d="M 540.734375 247.742188 L 537.3125 250.933594 L 537.601562 242.519531 C 538.777344 242.992188 540.046875 245.039062 540.734375 247.742188 Z M 540.734375 247.742188 "/>
<path style=" stroke:none;fill-rule:nonzero;fill:rgb(42.352941%,38.823529%,100%);fill-opacity:1;" d="M 203.175781 339.425781 L 199.078125 325.039062 L 203.445312 277.730469 C 203.566406 276.390625 204.0625 275.128906 204.859375 274.144531 C 205.84375 272.917969 207.214844 272.199219 208.664062 272.152344 C 210.34375 272.101562 211.949219 272.957031 213.003906 274.472656 C 213.230469 274.796875 213.425781 275.144531 213.59375 275.511719 C 214.085938 276.601562 214.289062 277.835938 214.171875 279.058594 L 209.800781 326.429688 Z M 203.175781 339.425781 "/>
<path style=" stroke:none;fill-rule:nonzero;fill:rgb(24.705882%,23.921569%,33.72549%);fill-opacity:1;" d="M 206.90625 272.871094 L 202.167969 324.222656 L 200.464844 324.011719 L 205.046875 274.347656 C 205.566406 273.703125 206.199219 273.199219 206.90625 272.871094 Z M 206.90625 272.871094 "/>
<path style=" stroke:none;fill-rule:nonzero;fill:rgb(24.705882%,23.921569%,33.72549%);fill-opacity:1;" d="M 213.363281 275.652344 L 208.808594 325.042969 L 207.105469 324.835938 L 211.835938 273.589844 C 212.195312 273.894531 212.523438 274.257812 212.804688 274.660156 C 213.019531 274.96875 213.207031 275.300781 213.363281 275.652344 Z M 213.363281 275.652344 "/>
<path style=" stroke:none;fill-rule:nonzero;fill:rgb(24.705882%,23.921569%,33.72549%);fill-opacity:1;" d="M 210.363281 272.726562 L 205.574219 324.644531 L 203.871094 324.433594 L 208.667969 272.449219 C 208.898438 272.441406 209.125 272.453125 209.355469 272.480469 C 209.695312 272.523438 210.035156 272.605469 210.363281 272.726562 Z M 210.363281 272.726562 "/>
<path style=" stroke:none;fill-rule:nonzero;fill:rgb(24.705882%,23.921569%,33.72549%);fill-opacity:1;" d="M 204.574219 336.101562 L 203.242188 338.710938 L 201.878906 333.949219 C 202.621094 333.925781 203.699219 334.761719 204.574219 336.101562 Z M 204.574219 336.101562 "/>
<path style=" stroke:none;fill-rule:nonzero;fill:rgb(100%,72.156863%,72.156863%);fill-opacity:1;" d="M 646.960938 322.554688 C 644.996094 326.527344 640.621094 327.90625 637.191406 325.636719 C 633.757812 323.363281 632.566406 318.300781 634.527344 314.324219 C 634.542969 314.292969 634.558594 314.261719 634.578125 314.230469 C 634.777344 313.839844 635.003906 313.46875 635.25 313.121094 L 629.226562 263.425781 L 629.046875 261.9375 L 627.824219 251.796875 L 627.644531 250.332031 L 628.3125 250.371094 L 639.980469 250.988281 L 643.109375 251.152344 L 643.5 260.402344 L 645.722656 312.414062 C 648.109375 315.054688 648.621094 319.246094 646.960938 322.554688 Z M 646.960938 322.554688 "/>
<path style=" stroke:none;fill-rule:nonzero;fill:rgb(79.607843%,79.607843%,79.607843%);fill-opacity:1;" d="M 629.082031 262.386719 L 643.902344 260.8125 C 645.5 260.636719 646.679688 259 646.539062 257.148438 L 643.792969 221.476562 C 643.242188 214.320312 637.785156 209.039062 631.605469 209.679688 C 625.425781 210.316406 620.859375 216.636719 621.414062 223.789062 C 621.433594 224.035156 621.457031 224.28125 621.488281 224.523438 L 625.929688 259.511719 C 626.140625 261.167969 627.367188 262.398438 628.816406 262.402344 C 628.90625 262.402344 628.992188 262.398438 629.082031 262.386719 Z M 629.082031 262.386719 "/>
<path style=" stroke:none;fill-rule:nonzero;fill:rgb(79.607843%,79.607843%,79.607843%);fill-opacity:1;" d="M 640.3125 233.566406 C 643.394531 223.46875 640.292969 212.230469 632.722656 206.070312 C 627.136719 201.644531 619.488281 200.054688 611.253906 211.40625 C 601.289062 225.257812 594.183594 241.558594 590.472656 259.066406 L 624.195312 265.421875 C 624.195312 265.421875 635.664062 249.195312 640.3125 233.566406 Z M 640.3125 233.566406 "/>
<path style=" stroke:none;fill-rule:nonzero;fill:rgb(100%,72.156863%,72.156863%);fill-opacity:1;" d="M 585.773438 489.226562 L 576.15625 489.226562 L 571.585938 446.296875 L 585.773438 446.296875 Z M 585.773438 489.226562 "/>
<path style=" stroke:none;fill-rule:nonzero;fill:rgb(18.431373%,18.039216%,25.490196%);fill-opacity:1;" d="M 557.617188 499.5625 L 587.835938 499.5625 L 587.835938 486.046875 L 569.292969 486.046875 C 562.84375 486.046875 557.617188 492.097656 557.617188 499.5625 Z M 557.617188 499.5625 "/>
<path style=" stroke:none;fill-rule:nonzero;fill:rgb(100%,72.156863%,72.156863%);fill-opacity:1;" d="M 664.820312 479.519531 L 655.691406 483.011719 L 639.707031 443.914062 L 653.179688 438.757812 Z M 664.820312 479.519531 "/>
<path style=" stroke:none;fill-rule:nonzero;fill:rgb(18.431373%,18.039216%,25.490196%);fill-opacity:1;" d="M 640.886719 499.5625 L 669.578125 488.582031 L 665.914062 475.75 L 648.308594 482.488281 C 642.1875 484.828125 638.863281 492.472656 640.886719 499.5625 Z M 640.886719 499.5625 "/>
<path style=" stroke:none;fill-rule:nonzero;fill:rgb(100%,72.156863%,72.156863%);fill-opacity:1;" d="M 638.40625 172.515625 C 638.40625 184.832031 629.785156 194.8125 619.144531 194.8125 C 608.507812 194.8125 599.882812 184.832031 599.882812 172.515625 C 599.882812 160.203125 608.507812 150.21875 619.144531 150.21875 C 629.785156 150.21875 638.40625 160.203125 638.40625 172.515625 Z M 638.40625 172.515625 "/>
<path style=" stroke:none;fill-rule:nonzero;fill:rgb(18.431373%,18.039216%,25.490196%);fill-opacity:1;" d="M 602.28125 477.277344 L 611.207031 409.054688 C 611.40625 407.554688 612.492188 406.421875 613.804688 406.355469 C 615.113281 406.292969 616.28125 407.308594 616.589844 408.785156 L 630.1875 473.796875 C 630.632812 475.863281 632.359375 477.195312 634.175781 476.871094 L 671.683594 469.890625 C 672.691406 469.707031 673.578125 469.023438 674.117188 468.023438 C 674.65625 467.023438 674.796875 465.800781 674.5 464.671875 L 625.59375 278.015625 C 625.457031 277.484375 625.441406 276.921875 625.546875 276.382812 L 627.175781 268.210938 C 627.542969 266.386719 626.789062 264.511719 625.351562 263.660156 C 618.691406 259.726562 601.824219 251.546875 589.09375 260.503906 C 588.257812 261.09375 587.671875 262.054688 587.464844 263.164062 L 549.257812 471.035156 C 549.050781 472.179688 549.273438 473.371094 549.871094 474.3125 C 550.472656 475.253906 551.390625 475.851562 552.394531 475.957031 L 598.476562 480.730469 C 598.582031 480.742188 598.683594 480.75 598.789062 480.75 C 600.53125 480.746094 602.015625 479.269531 602.277344 477.277344 Z M 602.28125 477.277344 "/>
<path style=" stroke:none;fill-rule:nonzero;fill:rgb(18.431373%,18.039216%,25.490196%);fill-opacity:1;" d="M 631.917969 156.761719 C 630.464844 155.75 629.175781 154.453125 628.109375 152.929688 C 627.039062 151.367188 626.75 149.265625 627.347656 147.394531 C 628.324219 144.90625 631.214844 144.125 633.457031 144.96875 C 635.695312 145.8125 637.425781 147.847656 639.066406 149.808594 C 640.507812 151.535156 641.992188 153.34375 642.671875 155.613281 C 643.355469 157.878906 643.003906 160.757812 641.304688 162.136719 C 639.632812 163.484375 637.230469 162.933594 635.625 161.480469 C 634.109375 159.894531 632.898438 157.957031 632.078125 155.789062 Z M 631.917969 156.761719 "/>
<path style=" stroke:none;fill-rule:nonzero;fill:rgb(18.431373%,18.039216%,25.490196%);fill-opacity:1;" d="M 638.441406 150.410156 C 638.546875 144.125 644.734375 139.621094 650.078125 140.734375 C 655.421875 141.847656 659.527344 147.121094 661.582031 152.9375 C 665.925781 165.226562 662.664062 179.246094 658.480469 191.613281 C 654.296875 203.976562 649.117188 216.523438 649.726562 229.78125 C 650.570312 244.378906 658.25 257.273438 669.738281 263.371094 C 663.707031 266.535156 656.5 263.269531 651.433594 258.335938 C 640.183594 247.382812 635.839844 227.878906 641.113281 211.996094 C 643.714844 204.160156 648.296875 197.457031 651.878906 190.15625 C 655.457031 182.855469 658.082031 174.25 656.234375 166.132812 C 654.386719 158.015625 646.523438 151.445312 639.800781 154.585938 Z M 638.441406 150.410156 "/>
<path style=" stroke:none;fill-rule:nonzero;fill:rgb(18.431373%,18.039216%,25.490196%);fill-opacity:1;" d="M 617.988281 182.410156 C 619.667969 179.125 621.363281 174.8125 618.292969 171.941406 C 616.945312 170.738281 615.234375 170.214844 613.550781 170.488281 C 610.089844 170.972656 606.320312 171.171875 602.972656 169.714844 C 600.433594 168.707031 598.359375 166.546875 597.21875 163.734375 C 595.496094 158.988281 597.65625 153.226562 601.269531 150.230469 C 605.792969 146.617188 611.742188 146.492188 616.371094 149.917969 C 621.054688 147.527344 626.734375 148.589844 630.988281 151.886719 C 635.242188 155.183594 638.152344 160.460938 639.734375 166.09375 C 641.191406 170.945312 641.441406 176.171875 640.457031 181.179688 C 638.851562 188.246094 634.367188 193.964844 628.445312 196.503906 C 626.132812 197.558594 623.507812 197.109375 621.558594 195.320312 C 620.003906 193.707031 618.804688 191.675781 618.074219 189.40625 C 617.433594 186.921875 617.09375 184.164062 617.988281 182.410156 Z M 617.988281 182.410156 "/>
<path style=" stroke:none;fill-rule:nonzero;fill:rgb(100%,72.156863%,72.156863%);fill-opacity:1;" d="M 560.847656 202.308594 C 560.945312 202.796875 561.007812 203.296875 561.035156 203.796875 L 594.726562 226.296875 L 602.914062 220.839844 L 611.640625 234.066406 L 597.957031 245.359375 C 595.6875 247.234375 592.617188 247.148438 590.429688 245.148438 L 555.6875 213.421875 C 552.476562 214.796875 548.863281 213.730469 546.617188 210.742188 C 544.367188 207.75 543.953125 203.460938 545.574219 199.972656 C 547.191406 196.480469 550.511719 194.511719 553.90625 195.03125 C 557.300781 195.550781 560.0625 198.449219 560.84375 202.308594 Z M 560.847656 202.308594 "/>
<path style=" stroke:none;fill-rule:nonzero;fill:rgb(79.607843%,79.607843%,79.607843%);fill-opacity:1;" d="M 595.851562 227.359375 L 606.742188 243.695312 C 607.367188 244.636719 608.316406 245.214844 609.339844 245.277344 C 610.363281 245.34375 611.359375 244.890625 612.074219 244.035156 L 624.398438 229.21875 C 627.21875 226.800781 628.710938 222.824219 628.304688 218.789062 C 627.902344 214.753906 625.667969 211.277344 622.445312 209.671875 C 619.222656 208.066406 615.503906 208.578125 612.695312 211.011719 C 612.585938 211.101562 612.480469 211.195312 612.378906 211.292969 L 596.921875 221.300781 C 596.023438 221.878906 595.390625 222.882812 595.1875 224.046875 C 594.980469 225.210938 595.222656 226.421875 595.847656 227.359375 Z M 595.851562 227.359375 "/>
<path style=" stroke:none;fill-rule:nonzero;fill:rgb(62.745098%,38.039216%,41.568627%);fill-opacity:1;" d="M 179.792969 487.832031 L 190.246094 487.832031 L 195.21875 441.164062 L 179.792969 441.164062 Z M 179.792969 487.832031 "/>
<path style=" stroke:none;fill-rule:nonzero;fill:rgb(18.431373%,18.039216%,25.490196%);fill-opacity:1;" d="M 177.128906 483.882812 L 197.710938 483.882812 C 204.957031 483.882812 210.828125 490.679688 210.828125 499.066406 L 210.828125 499.558594 L 177.128906 499.5625 Z M 177.128906 483.882812 "/>
<path style=" stroke:none;fill-rule:nonzero;fill:rgb(62.745098%,38.039216%,41.568627%);fill-opacity:1;" d="M 98.414062 482.597656 L 108.75 484.402344 L 119.691406 439.121094 L 106.144531 436.453125 Z M 98.414062 482.597656 "/>
<path style=" stroke:none;fill-rule:nonzero;fill:rgb(18.431373%,18.039216%,25.490196%);fill-opacity:1;" d="M 96.289062 478.226562 L 116.640625 481.789062 C 123.804688 483.042969 128.730469 490.78125 127.648438 499.074219 L 127.585938 499.5625 L 94.265625 493.730469 Z M 96.289062 478.226562 "/>
<path style=" stroke:none;fill-rule:nonzero;fill:rgb(62.745098%,38.039216%,41.568627%);fill-opacity:1;" d="M 130.640625 256.558594 L 142.246094 260.078125 L 141.472656 281.855469 L 141.375 321.511719 C 143.71875 323.386719 144.816406 326.738281 144.140625 329.9375 C 143.464844 333.136719 141.152344 335.523438 138.328125 335.933594 C 135.503906 336.34375 132.753906 334.695312 131.414062 331.789062 C 130.074219 328.882812 130.421875 325.320312 132.289062 322.832031 L 128.726562 283.035156 Z M 130.640625 256.558594 "/>
<path style=" stroke:none;fill-rule:nonzero;fill:rgb(79.607843%,79.607843%,79.607843%);fill-opacity:1;" d="M 128.621094 231.609375 C 128.75 227.3125 131.039062 223.496094 134.476562 221.859375 C 137.691406 220.191406 141.457031 220.890625 144.0625 223.640625 C 145.917969 225.558594 146.945312 228.324219 146.878906 231.203125 C 146.90625 243.960938 144.417969 262.558594 144.394531 262.746094 L 144.355469 263.042969 L 127.390625 269.652344 Z M 128.621094 231.609375 "/>
<path style=" stroke:none;fill-rule:nonzero;fill:rgb(18.431373%,18.039216%,25.490196%);fill-opacity:1;" d="M 158.949219 267.828125 L 184.890625 260.054688 L 196.886719 306.8125 L 197.3125 480.996094 L 177.472656 480.855469 L 169.179688 339.871094 L 116.324219 470.140625 L 95.011719 467.179688 L 141.472656 327.535156 C 141.472656 327.535156 138.914062 302.863281 147.011719 290.527344 L 145.308594 277.699219 Z M 158.949219 267.828125 "/>
<path style=" stroke:none;fill-rule:nonzero;fill:rgb(79.607843%,79.607843%,79.607843%);fill-opacity:1;" d="M 141.453125 279.460938 C 140.722656 278.429688 140.410156 277.078125 140.605469 275.761719 L 128.773438 234.660156 C 127.644531 230.734375 128.621094 226.410156 131.265625 223.625 L 136.402344 218.21875 L 139.882812 202.097656 L 159.890625 207.761719 L 158.242188 215.394531 L 167.300781 213.488281 L 186.375 262.667969 L 146.503906 281.117188 L 144.539062 281.152344 C 143.34375 281.15625 142.210938 280.535156 141.453125 279.460938 Z M 141.453125 279.460938 "/>
<path style=" stroke:none;fill-rule:nonzero;fill:rgb(62.745098%,38.039216%,41.568627%);fill-opacity:1;" d="M 169.226562 244.761719 L 180.660156 240.554688 L 190.066406 259.441406 L 208.292969 293.015625 C 211.136719 293.148438 213.613281 295.300781 214.519531 298.425781 C 215.425781 301.546875 214.574219 304.992188 212.375 307.089844 C 210.179688 309.183594 207.09375 309.492188 204.621094 307.863281 C 202.144531 306.234375 200.796875 303.007812 201.226562 299.753906 L 179.835938 268.320312 Z M 169.226562 244.761719 "/>
<path style=" stroke:none;fill-rule:nonzero;fill:rgb(79.607843%,79.607843%,79.607843%);fill-opacity:1;" d="M 156 224.925781 C 154.125 221.210938 154.300781 216.574219 156.449219 213.0625 C 158.398438 209.664062 161.902344 207.925781 165.375 208.636719 C 167.824219 209.109375 169.972656 210.8125 171.242188 213.285156 C 177.160156 224.050781 183.644531 241.308594 183.710938 241.480469 L 183.8125 241.753906 L 172.53125 257.839844 Z M 156 224.925781 "/>
<path style=" stroke:none;fill-rule:nonzero;fill:rgb(62.745098%,38.039216%,41.568627%);fill-opacity:1;" d="M 170.585938 180.695312 C 170.585938 190.859375 163.46875 199.097656 154.6875 199.097656 C 145.90625 199.097656 138.789062 190.859375 138.789062 180.695312 C 138.789062 170.53125 145.90625 162.289062 154.6875 162.289062 C 163.46875 162.289062 170.585938 170.53125 170.585938 180.695312 Z M 170.585938 180.695312 "/>
<path style=" stroke:none;fill-rule:nonzero;fill:rgb(18.431373%,18.039216%,25.490196%);fill-opacity:1;" d="M 141.90625 155.203125 C 141.90625 164.996094 135.050781 172.929688 126.589844 172.929688 C 118.132812 172.929688 111.277344 164.996094 111.277344 155.203125 C 111.277344 145.414062 118.132812 137.476562 126.589844 137.476562 C 135.050781 137.476562 141.90625 145.414062 141.90625 155.203125 Z M 141.90625 155.203125 "/>
<path style=" stroke:none;fill-rule:nonzero;fill:rgb(18.431373%,18.039216%,25.490196%);fill-opacity:1;" d="M 113.382812 169.882812 C 117.402344 173.25 122.585938 174.148438 127.285156 172.300781 C 131.980469 170.449219 135.613281 166.082031 137.03125 160.574219 C 136.3125 167.203125 132.433594 172.800781 126.996094 175.054688 C 121.5625 177.304688 115.496094 175.828125 111.304688 171.234375 C 107.113281 166.640625 105.511719 159.707031 107.15625 153.304688 C 106.457031 159.730469 108.84375 166.089844 113.382812 169.882812 Z M 113.382812 169.882812 "/>
<path style=" stroke:none;fill-rule:nonzero;fill:rgb(18.431373%,18.039216%,25.490196%);fill-opacity:1;" d="M 173.820312 169.902344 C 171.144531 164.363281 170.121094 162.046875 166.675781 158.679688 C 163.625 155.699219 159.878906 154.824219 156.851562 157.648438 C 149.507812 153.972656 140.949219 156.316406 135.800781 163.410156 C 130.652344 170.503906 130.140625 180.667969 134.535156 188.410156 C 138.929688 196.152344 147.195312 199.636719 154.863281 196.980469 C 162.53125 194.324219 167.78125 186.15625 167.78125 176.890625 C 167.777344 176.101562 167.738281 175.308594 167.65625 174.523438 C 170.285156 174.09375 171.191406 170.332031 173.820312 169.902344 Z M 173.820312 169.902344 "/>
<path style=" stroke:none;fill-rule:nonzero;fill:rgb(79.607843%,79.607843%,79.607843%);fill-opacity:1;" d="M 329.324219 499.75 L 0.863281 499.75 C 0.386719 499.75 0 499.304688 0 498.753906 C 0 498.203125 0.386719 497.753906 0.863281 497.753906 L 329.324219 497.753906 C 329.800781 497.753906 330.1875 498.203125 330.1875 498.753906 C 330.1875 499.304688 329.800781 499.75 329.324219 499.75 Z M 329.324219 499.75 "/>
<path style=" stroke:none;fill-rule:nonzero;fill:rgb(79.607843%,79.607843%,79.607843%);fill-opacity:1;" d="M 768.136719 499.75 L 439.675781 499.75 C 439.199219 499.75 438.8125 499.304688 438.8125 498.753906 C 438.8125 498.203125 439.199219 497.753906 439.675781 497.753906 L 768.136719 497.753906 C 768.613281 497.753906 769 498.203125 769 498.753906 C 769 499.304688 768.613281 499.75 768.136719 499.75 Z M 768.136719 499.75 "/>
<path style=" stroke:none;fill-rule:nonzero;fill:rgb(79.607843%,79.607843%,79.607843%);fill-opacity:1;" d="M 338.203125 19.710938 L 339.925781 19.710938 L 339.925781 322.144531 L 338.203125 322.144531 Z M 338.203125 19.710938 "/>
</g>
</svg>
