<?xml version="1.0" encoding="UTF-8"?>
<svg xmlns="http://www.w3.org/2000/svg" xmlns:xlink="http://www.w3.org/1999/xlink" width="769px" height="500px" viewBox="0 0 769 500" version="1.1">
<g id="surface1">
<path style=" stroke:none;fill-rule:nonzero;fill:rgb(24.705882%,23.921569%,33.72549%);fill-opacity:1;" d="M 432.148438 345.878906 L 592.136719 345.878906 L 592.136719 347.9375 L 432.148438 347.9375 Z M 432.148438 345.878906 "/>
<path style=" stroke:none;fill-rule:nonzero;fill:rgb(24.705882%,23.921569%,33.72549%);fill-opacity:1;" d="M 432.148438 360.285156 L 592.136719 360.285156 L 592.136719 362.34375 L 432.148438 362.34375 Z M 432.148438 360.285156 "/>
<path style=" stroke:none;fill-rule:nonzero;fill:rgb(24.705882%,23.921569%,33.72549%);fill-opacity:1;" d="M 432.148438 374.691406 L 592.136719 374.691406 L 592.136719 376.746094 L 432.148438 376.746094 Z M 432.148438 374.691406 "/>
<path style=" stroke:none;fill-rule:nonzero;fill:rgb(24.705882%,23.921569%,33.72549%);fill-opacity:1;" d="M 466.140625 322.511719 L 428.65625 322.511719 L 428.65625 287.320312 L 466.140625 287.320312 Z M 430.15625 320.792969 L 464.640625 320.792969 L 464.640625 289.039062 L 430.15625 289.039062 Z M 430.15625 320.792969 "/>
<path style=" stroke:none;fill-rule:nonzero;fill:rgb(42.352941%,38.823529%,100%);fill-opacity:1;" d="M 454.242188 305.273438 C 454.242188 309.792969 451.046875 313.453125 447.097656 313.453125 C 443.152344 313.453125 439.953125 309.792969 439.953125 305.273438 C 439.953125 300.757812 443.152344 297.09375 447.097656 297.09375 C 451.046875 297.09375 454.242188 300.757812 454.242188 305.273438 Z M 454.242188 305.273438 "/>
<path style=" stroke:none;fill-rule:nonzero;fill:rgb(24.705882%,23.921569%,33.72549%);fill-opacity:1;" d="M 432.148438 58.558594 L 592.136719 58.558594 L 592.136719 60.617188 L 432.148438 60.617188 Z M 432.148438 58.558594 "/>
<path style=" stroke:none;fill-rule:nonzero;fill:rgb(24.705882%,23.921569%,33.72549%);fill-opacity:1;" d="M 432.148438 72.964844 L 592.136719 72.964844 L 592.136719 75.019531 L 432.148438 75.019531 Z M 432.148438 72.964844 "/>
<path style=" stroke:none;fill-rule:nonzero;fill:rgb(24.705882%,23.921569%,33.72549%);fill-opacity:1;" d="M 432.148438 87.367188 L 592.136719 87.367188 L 592.136719 89.425781 L 432.148438 89.425781 Z M 432.148438 87.367188 "/>
<path style=" stroke:none;fill-rule:nonzero;fill:rgb(24.705882%,23.921569%,33.72549%);fill-opacity:1;" d="M 466.140625 35.1875 L 428.65625 35.1875 L 428.65625 0 L 466.140625 0 Z M 430.15625 33.472656 L 464.640625 33.472656 L 464.640625 1.714844 L 430.15625 1.714844 Z M 430.15625 33.472656 "/>
<path style=" stroke:none;fill-rule:nonzero;fill:rgb(42.352941%,38.823529%,100%);fill-opacity:1;" d="M 454.242188 17.953125 C 454.242188 22.46875 451.046875 26.132812 447.097656 26.132812 C 443.152344 26.132812 439.953125 22.46875 439.953125 17.953125 C 439.953125 13.433594 443.152344 9.773438 447.097656 9.773438 C 451.046875 9.773438 454.242188 13.433594 454.242188 17.953125 Z M 454.242188 17.953125 "/>
<path style=" stroke:none;fill-rule:nonzero;fill:rgb(24.705882%,23.921569%,33.72549%);fill-opacity:1;" d="M 608.992188 223.179688 L 768.976562 223.179688 L 768.976562 225.238281 L 608.992188 225.238281 Z M 608.992188 223.179688 "/>
<path style=" stroke:none;fill-rule:nonzero;fill:rgb(24.705882%,23.921569%,33.72549%);fill-opacity:1;" d="M 608.992188 237.585938 L 768.976562 237.585938 L 768.976562 239.640625 L 608.992188 239.640625 Z M 608.992188 237.585938 "/>
<path style=" stroke:none;fill-rule:nonzero;fill:rgb(24.705882%,23.921569%,33.72549%);fill-opacity:1;" d="M 608.992188 251.988281 L 768.976562 251.988281 L 768.976562 254.046875 L 608.992188 254.046875 Z M 608.992188 251.988281 "/>
<path style=" stroke:none;fill-rule:nonzero;fill:rgb(24.705882%,23.921569%,33.72549%);fill-opacity:1;" d="M 642.984375 199.808594 L 605.5 199.808594 L 605.5 164.621094 L 642.984375 164.621094 Z M 606.996094 198.09375 L 641.484375 198.09375 L 641.484375 166.339844 L 606.996094 166.339844 Z M 606.996094 198.09375 "/>
<path style=" stroke:none;fill-rule:nonzero;fill:rgb(42.352941%,38.823529%,100%);fill-opacity:1;" d="M 631.085938 182.574219 C 631.085938 187.09375 627.886719 190.753906 623.941406 190.753906 C 619.996094 190.753906 616.796875 187.09375 616.796875 182.574219 C 616.796875 178.058594 619.996094 174.394531 623.941406 174.394531 C 627.886719 174.394531 631.085938 178.058594 631.085938 182.574219 Z M 631.085938 182.574219 "/>
<path style=" stroke:none;fill-rule:nonzero;fill:rgb(42.352941%,38.823529%,100%);fill-opacity:1;" d="M 187.253906 277.914062 C 185.980469 278.019531 184.800781 278.707031 183.972656 279.816406 L 178.367188 287.285156 L 176.867188 289.28125 C 175.140625 291.585938 175.367188 295.054688 177.375 297.035156 L 202.226562 321.492188 L 246.304688 364.851562 C 248.214844 366.726562 251.0625 366.601562 252.839844 364.5625 C 252.925781 364.46875 253 364.371094 253.078125 364.273438 L 257.371094 358.558594 L 260.1875 354.800781 C 260.414062 354.5 260.613281 354.171875 260.777344 353.824219 C 261.210938 352.898438 261.402344 351.851562 261.335938 350.804688 C 261.242188 349.347656 260.644531 347.996094 259.671875 347.046875 L 254.417969 341.878906 L 215.546875 303.636719 L 190.746094 279.226562 C 189.777344 278.277344 188.523438 277.804688 187.253906 277.914062 Z M 187.253906 277.914062 "/>
<path style=" stroke:none;fill-rule:nonzero;fill:rgb(42.352941%,38.823529%,100%);fill-opacity:1;" d="M 213.804688 209.894531 C 213.804688 234.894531 196.101562 255.160156 174.261719 255.160156 C 152.421875 255.160156 134.71875 234.894531 134.71875 209.894531 C 134.71875 184.890625 152.421875 164.625 174.261719 164.625 C 196.101562 164.625 213.804688 184.890625 213.804688 209.894531 Z M 213.804688 209.894531 "/>
<path style=" stroke:none;fill-rule:nonzero;fill:rgb(18.431373%,18.039216%,25.490196%);fill-opacity:1;" d="M 164.136719 383.714844 L 153.230469 383.714844 C 150.578125 383.71875 148.429688 386.175781 148.425781 389.210938 L 148.425781 493.257812 C 148.429688 496.292969 150.578125 498.753906 153.230469 498.757812 L 164.136719 498.757812 C 166.785156 498.753906 168.933594 496.292969 168.9375 493.257812 L 168.9375 389.210938 C 168.933594 386.175781 166.785156 383.71875 164.136719 383.714844 Z M 164.136719 383.714844 "/>
<path style=" stroke:none;fill-rule:nonzero;fill:rgb(18.431373%,18.039216%,25.490196%);fill-opacity:1;" d="M 187.179688 383.714844 L 176.273438 383.714844 C 173.621094 383.71875 171.472656 386.175781 171.472656 389.210938 L 171.472656 493.257812 C 171.472656 496.292969 173.621094 498.753906 176.273438 498.757812 L 187.179688 498.757812 C 189.832031 498.757812 191.980469 496.292969 191.980469 493.257812 L 191.980469 389.210938 C 191.980469 386.175781 189.832031 383.714844 187.179688 383.714844 Z M 187.179688 383.714844 "/>
<path style=" stroke:none;fill-rule:nonzero;fill:rgb(18.431373%,18.039216%,25.490196%);fill-opacity:1;" d="M 186.675781 403.449219 L 150.25 402.359375 C 147.035156 402.261719 143.992188 400.707031 141.785156 398.035156 C 139.578125 395.359375 138.394531 391.789062 138.492188 388.113281 C 139.214844 361.507812 140.933594 303.9375 140.949219 303.378906 C 140.949219 288.472656 149.230469 275.21875 161.554688 270.402344 C 173.878906 265.589844 187.507812 270.28125 195.46875 282.078125 C 199.605469 288.144531 201.847656 295.621094 201.835938 303.3125 L 214.171875 365.21875 C 216.023438 374.496094 214.082031 384.234375 208.902344 391.675781 C 203.722656 399.117188 195.867188 403.457031 187.554688 403.464844 C 187.261719 403.464844 186.96875 403.460938 186.675781 403.449219 Z M 186.675781 403.449219 "/>
<path style=" stroke:none;fill-rule:nonzero;fill:rgb(18.431373%,18.039216%,25.490196%);fill-opacity:1;" d="M 210.835938 220.316406 L 210.445312 218.683594 C 213.101562 217.855469 215.414062 217.007812 216.871094 215.035156 C 217.695312 213.855469 218.03125 212.324219 217.789062 210.839844 C 217.664062 209.921875 217.171875 209.128906 216.457031 208.691406 C 215.042969 207.878906 213.230469 208.773438 212.003906 209.878906 L 210.949219 210.835938 L 209.183594 191.140625 L 210.652344 190.96875 L 212.15625 207.71875 C 213.621094 206.585938 215.492188 206.382812 217.117188 207.175781 C 218.238281 207.84375 219.023438 209.070312 219.238281 210.496094 C 219.570312 212.492188 219.117188 214.550781 218 216.128906 C 216.128906 218.664062 213.195312 219.578125 210.835938 220.316406 Z M 210.835938 220.316406 "/>
<path style=" stroke:none;fill-rule:nonzero;fill:rgb(18.431373%,18.039216%,25.490196%);fill-opacity:1;" d="M 193.574219 197.195312 L 201.308594 195.046875 L 201.65625 196.691406 L 193.925781 198.839844 Z M 193.574219 197.195312 "/>
<path style=" stroke:none;fill-rule:nonzero;fill:rgb(42.352941%,38.823529%,100%);fill-opacity:1;" d="M 160.25 283.730469 C 159.386719 282.652344 158.183594 282.015625 156.910156 281.960938 L 148.316406 281.554688 L 146.019531 281.445312 C 143.371094 281.320312 141.132812 283.675781 141.015625 286.707031 L 139.65625 324.195312 L 137.257812 390.667969 C 137.15625 393.542969 139.007812 396.027344 141.503906 396.359375 C 141.621094 396.378906 141.734375 396.386719 141.851562 396.394531 L 148.425781 396.707031 L 152.75 396.910156 C 153.097656 396.925781 153.441406 396.902344 153.785156 396.832031 C 154.6875 396.648438 155.523438 396.171875 156.199219 395.464844 C 157.140625 394.476562 157.695312 393.101562 157.742188 391.640625 L 158.03125 383.714844 L 160.152344 325.089844 L 161.511719 287.679688 C 161.566406 286.222656 161.109375 284.800781 160.25 283.730469 Z M 160.25 283.730469 "/>
<path style=" stroke:none;fill-rule:nonzero;fill:rgb(18.431373%,18.039216%,25.490196%);fill-opacity:1;" d="M 153.953125 275.523438 C 153.035156 275.304688 152.097656 275.191406 151.160156 275.195312 C 143.617188 275.207031 137.5 282.207031 137.492188 290.84375 L 137.492188 319.601562 C 137.496094 321.449219 138.308594 323.175781 139.65625 324.195312 C 140.199219 324.601562 140.808594 324.878906 141.445312 325.007812 C 141.726562 325.066406 142.011719 325.097656 142.296875 325.097656 L 160.027344 325.097656 C 160.070312 325.101562 160.109375 325.097656 160.152344 325.089844 C 162.753906 325.015625 164.828125 322.578125 164.828125 319.601562 L 164.828125 290.84375 C 164.820312 283.4375 160.285156 277.046875 153.953125 275.523438 Z M 153.953125 275.523438 "/>
<path style=" stroke:none;fill-rule:nonzero;fill:rgb(18.431373%,18.039216%,25.490196%);fill-opacity:1;" d="M 215.085938 296.976562 L 195.644531 278.765625 C 189.804688 273.289062 181.191406 274.273438 176.410156 280.960938 C 171.628906 287.644531 172.488281 297.503906 178.328125 302.980469 L 197.765625 321.191406 C 199.53125 322.847656 202.070312 322.851562 203.839844 321.199219 C 204.09375 320.972656 204.324219 320.710938 204.527344 320.421875 L 215.757812 304.714844 C 216.15625 304.164062 216.453125 303.527344 216.636719 302.84375 C 217.203125 300.710938 216.589844 298.394531 215.085938 296.976562 Z M 215.085938 296.976562 "/>
<path style=" stroke:none;fill-rule:nonzero;fill:rgb(18.431373%,18.039216%,25.490196%);fill-opacity:1;" d="M 174.65625 182.390625 C 181.707031 183.664062 189.316406 185.121094 196.210938 182.214844 C 201.859375 179.832031 206.621094 174.386719 206.5 167.140625 C 206.386719 160.21875 202.285156 154.101562 197.140625 150.871094 C 191.316406 147.222656 184.222656 146.644531 177.726562 147.375 C 173.800781 147.816406 169.578125 148.949219 166.507812 151.957031 C 164.054688 154.363281 162.160156 158.003906 162.511719 161.824219 L 159.644531 161.738281 C 160.761719 157.519531 158.902344 153.300781 156.097656 150.570312 C 152.71875 147.285156 148.121094 146.804688 143.917969 147.828125 C 135.375 149.90625 127.648438 156.828125 121.972656 164.183594 C 116.390625 171.445312 112.359375 180.097656 110.203125 189.457031 C 107.792969 199.964844 107.734375 211.742188 111.445312 221.875 C 115.222656 232.183594 123.445312 240.679688 133.511719 241.300781 C 135.417969 241.417969 135.339844 244.820312 133.421875 244.699219 C 123.808594 244.109375 115.308594 237.070312 110.617188 227.648438 C 105.230469 216.824219 104.535156 203.523438 106.730469 191.515625 C 108.707031 181.007812 112.90625 171.210938 118.960938 162.996094 C 125.003906 154.734375 133.484375 147.085938 142.8125 144.625 C 148.167969 143.210938 153.804688 143.949219 158.109375 148.082031 C 161.78125 151.613281 163.925781 157.304688 162.492188 162.714844 C 162.097656 164.199219 159.785156 164.390625 159.625 162.628906 C 158.800781 153.691406 165.175781 147.203125 172.183594 145.050781 C 176.15625 143.929688 180.253906 143.496094 184.339844 143.773438 C 188.09375 143.898438 191.804688 144.71875 195.328125 146.199219 C 201.976562 149.128906 207.507812 155.214844 209.070312 163.371094 C 210.625 171.507812 207.183594 179.046875 201.09375 183.277344 C 193.054688 188.855469 183.386719 187.382812 174.566406 185.792969 C 173.757812 185.734375 173.128906 184.96875 173.125 184.039062 C 173.15625 183.101562 173.839844 182.367188 174.65625 182.390625 Z M 174.65625 182.390625 "/>
<path style=" stroke:none;fill-rule:nonzero;fill:rgb(24.705882%,23.921569%,33.72549%);fill-opacity:1;" d="M 341.183594 499.542969 L 0.894531 499.542969 C 0.398438 499.542969 0 499.085938 0 498.523438 C 0 497.957031 0.398438 497.5 0.894531 497.5 L 341.183594 497.5 C 341.675781 497.5 342.074219 497.957031 342.074219 498.523438 C 342.074219 499.085938 341.675781 499.542969 341.183594 499.542969 Z M 341.183594 499.542969 "/>
</g>
</svg>
