<?xml version="1.0" standalone="no"?>
<!DOCTYPE svg PUBLIC "-//W3C//DTD SVG 1.0//EN" "http://www.w3.org/TR/2001/REC-SVG-20010904/DTD/svg10.dtd">
<svg xmlns="http://www.w3.org/2000/svg" xmlns:xlink="http://www.w3.org/1999/xlink" id="body_1" width="487" height="450">

<g transform="matrix(0.7503015 0 0 0.7503015 0.02720209 -0)">
    <path transform="matrix(1 0 0 1 -275.5 -150.1205)"  d="M866.76984 630.62244L814.0866 552.36786C 814.0866 552.36786 893.8712 580.2212 884.8165 630.62244L884.8165 630.62244L866.76984 630.62244z" stroke="none" fill="#E5E5E5" fill-rule="nonzero" />
    <path transform="matrix(1 0 0 1 -275.5 -150.1205)"  d="M320.66235 631.1416L318.66235 631.10254C 319.43585 608.86523 321.80856 586.71216 325.76196 564.8154C 334.4104 517.9346 348.79126 487.1455 368.50513 473.3037L368.50513 473.3037L369.65356 474.94043C 323.6018 507.2744 320.6858 629.90625 320.66235 631.1416z" stroke="none" fill="#E5E5E5" fill-rule="nonzero" />
    <path transform="matrix(1 0 0 1 -275.5 -150.1205)"  d="M345.66235 630.6631L343.66235 630.624C 343.70535 628.4092 344.95535 576.20996 365.50513 561.7822L365.50513 561.7822L366.65356 563.41895C 346.93286 577.26465 345.67212 630.13086 345.66235 630.6631z" stroke="none" fill="#E5E5E5" fill-rule="nonzero" />
    <path d="M115.53151 315.00156C 115.53152 317.763 114.55521 320.12003 112.60258 322.07263C 110.64996 324.02527 108.29294 325.00156 105.5315 325.00156C 102.77008 325.00156 100.413055 324.02527 98.46043 322.07263C 96.50781 320.12003 95.531494 317.763 95.531494 315.00156C 95.531494 312.2401 96.50781 309.88312 98.46043 307.93048C 100.413055 305.97787 102.77008 305.0016 105.5315 305.00156C 108.29294 305.0016 110.64996 305.97787 112.60258 307.93048C 114.55521 309.88312 115.53152 312.2401 115.53151 315.00156C 115.53152 315.11792 115.52949 315.23425 115.52542 315.35056" stroke="none" fill="#6C63FF" fill-rule="nonzero" />
    <path d="M110.57935 401.0016C 110.57936 403.76303 109.60305 406.12006 107.65042 408.07266C 105.69781 410.0253 103.34078 411.0016 100.57935 411.0016C 97.81793 411.0016 95.46091 410.0253 93.508286 408.07266C 91.555664 406.12006 90.57936 403.76303 90.57935 401.0016C 90.57936 398.24017 91.555664 395.88315 93.508286 393.9305C 95.46091 391.9779 97.81793 391.0016 100.57935 391.0016C 103.34078 391.0016 105.69781 391.9779 107.65042 393.9305C 109.60305 395.88315 110.57936 398.24017 110.57935 401.0016C 110.57936 401.11798 110.57733 401.2343 110.57326 401.3506" stroke="none" fill="#6C63FF" fill-rule="nonzero" />
    <path transform="matrix(1 0 0 1 -275.5 -150.1205)"  d="M341.00113 481.11664C 342.8805 493.12064 337.98224 503.85724 337.98224 503.85724C 337.98224 503.85724 330.03693 495.1314 328.1576 483.12738C 326.27826 471.12335 331.1765 460.38678 331.1765 460.38678C 331.1765 460.38678 339.12177 469.1126 341.00113 481.11664z" stroke="none" fill="#E5E5E5" fill-rule="nonzero" />
    <path transform="matrix(1 0 0 1 -275.5 -150.1205)"  d="M373.6883 510.27045C 362.19528 514.21265 350.7695 511.26007 350.7695 511.26007C 350.7695 511.26007 357.97742 501.91595 369.47037 497.97375C 380.96332 494.03156 392.38916 496.98413 392.38916 496.98413C 392.38916 496.98413 385.18124 506.32825 373.6883 510.27045z" stroke="none" fill="#E5E5E5" fill-rule="nonzero" />
    <path transform="matrix(1 0 0 1 -275.5 -150.1205)"  d="M374.05753 586.4316C 368.8559 588.06537 363.3164 588.30457 357.99332 587.12524C 364.89755 578.33496 376.3192 574.4172 387.1653 577.11896C 383.68683 581.3173 379.1668 584.5286 374.05753 586.4316z" stroke="none" fill="#E5E5E5" fill-rule="nonzero" />
    <path transform="matrix(1 0 0 1 -275.5 -150.1205)"  d="M923.5 632.62244L276.5 632.62244C 275.94772 632.62244 275.5 632.17474 275.5 631.62244C 275.5 631.0701 275.94772 630.62244 276.5 630.62244L276.5 630.62244L923.5 630.62244C 924.0523 630.62244 924.5 631.0701 924.5 631.62244C 924.5 632.17474 924.0523 632.62244 923.5 632.62244z" stroke="none" fill="#CBCBCB" fill-rule="nonzero" />
    <path d="M409.792 528.602L401.611 549.895L315.587 528.472L327.661 497.045L409.792 528.602L409.792 528.602" stroke="none" fill="#FFB7B7" fill-rule="nonzero" />
    <path transform="matrix(1 0 0 1 -275.5 -150.1205)"  d="M708.01886 681.2212L681.6396 749.8795L680.7712 749.5459C 666.01276 743.875 658.645 727.3145 664.3141 712.5554L664.3141 712.5554L664.31476 712.5537L680.42645 670.6196L708.01886 681.2212z" stroke="none" fill="#2F2E41" fill-rule="nonzero" />
    <path transform="matrix(1 0 0 1 -275.5 -150.1205)"  d="M554.5748 412.1124L517.0867 415.6224L515.2269 527.16486C 516.26056 538.5349 526.19 546.99524 537.58 546.21063L537.58 546.21063L561.34827 544.5733L554.5748 412.1124z" stroke="none" fill="#E5E5E5" fill-rule="nonzero" />
    <path transform="matrix(1 0 0 1 -275.5 -150.1205)"  d="M686.7373 406.6224L661.0866 406.29233L659.5671 538.828C 671.0252 539.2102 682.1262 534.8103 690.21124 526.6821C 698.29626 518.55396 702.637 507.42972 702.19385 495.97382L702.19385 495.97382L686.7373 406.6224z" stroke="none" fill="#E5E5E5" fill-rule="nonzero" />
    <path transform="matrix(1 0 0 1 -275.5 -150.1205)"  d="M537.9007 585.9118C 537.2932 589.75604 536.41144 593.5519 535.2621 597.2704C 533.9677 600.9101 531.96936 604.27606 530.7859 607.9533C 527.0135 619.6747 532.24316 632.74365 540.59576 641.791C 547.8392 649.6055 557.18884 655.15735 567.517 657.7769C 575.0522 659.67206 582.887 659.9448 590.65234 660.2081C 612.155 660.9373 634.211 661.58966 654.58606 654.67926C 661.02344 652.4422 667.2411 649.61755 673.1607 646.2409C 675.0298 645.35046 676.6764 644.0539 677.9804 642.4459C 679.5344 640.2335 679.7332 637.3642 679.71967 634.6606C 679.67395 625.54504 677.8259 616.47595 678.26465 607.37085C 678.5076 602.3275 679.45154 597.28815 678.98694 592.2604C 677.66925 580.5605 669.1427 570.9501 657.683 568.2483C 651.90295 567.0071 645.90796 567.6834 640.02344 568.24927C 624.74896 569.7169 609.40845 570.40283 594.0639 570.30426C 578.3854 570.20416 562.80365 567.81085 547.2032 567.5609C 542.58966 567.487 542.68286 568.9093 541.2141 573.3743C 539.8612 577.4839 538.7548 581.6704 537.9007 585.9118z" stroke="none" fill="#2F2E41" fill-rule="nonzero" />
    <path transform="matrix(1 0 0 1 -275.5 -150.1205)"  d="M476.592 578.5032C 472.37595 577.44354 468.03192 576.98175 463.68732 577.13135C 454.4531 577.6418 445.88385 582.0971 440.16177 589.36273C 434.43973 596.6284 432.11703 606.00323 433.7852 615.0999C 434.83795 619.971 436.55875 624.6732 438.8987 629.0731C 442.32108 636.0184 446.42572 642.94775 452.76138 647.39844C 456.4676 650.002 460.75705 651.62524 464.99557 653.222L464.99557 653.222L498.36426 665.79254C 503.27316 667.6418 508.1828 669.49133 513.1403 671.2061C 538.04626 679.81494 564.0126 684.9771 590.3175 686.54913C 598.3299 687.02625 606.4636 687.159 614.2802 685.3349C 616.13513 684.90204 618.11383 684.2567 619.18774 682.6836C 619.8237 681.5754 620.1987 680.33673 620.28424 679.0619L620.28424 679.0619L622.3376 664.68726C 622.6267 662.66327 622.9049 660.5328 622.1631 658.62756C 621.2225 656.21173 618.8647 654.692 616.6166 653.4008C 594.679 640.80096 569.0643 633.84973 550.5991 616.55664C 546.25214 612.48566 542.6144 606.03253 537.3328 603.26715C 531.3436 600.1312 524.29016 598.34143 518.0995 595.4517C 504.56586 589.1344 491.25977 581.8749 476.592 578.5032z" stroke="none" fill="#2F2E41" fill-rule="nonzero" />
    <path transform="matrix(1 0 0 1 -275.5 -150.1205)"  d="M509.90573 597.88226C 521.7002 601.578 571.4963 627.1824 580.0315 636.1221C 578.88745 636.53424 540.0705 614.78064 538.9057 614.4311C 528.3181 611.25354 517.6717 608.0551 507.61725 603.4049C 505.59457 602.4694 494.4767 598.0723 494.98026 595.52026C 495.5484 592.64044 507.81192 597.2262 509.90573 597.88226z" stroke="none" fill="#000000" fill-rule="nonzero" fill-opacity="0.09803922" />
    <path transform="matrix(1 0 0 1 -275.5 -150.1205)"  d="M581.0866 374.62207L549.3307 398.73376C 549.3307 398.73376 515.822 399.78207 516.95435 421.20224C 518.0867 442.6224 531.4976 544.03973 531.4976 544.03973L531.4976 544.03973L534.40735 578.93524L589.6002 594.6617C 619.42163 603.15894 650.9285 603.83417 681.0866 596.62244L681.0866 596.62244L674.5276 561.61456C 674.5276 561.61456 701.0866 402.62244 685.0866 395.62244C 669.0866 388.62244 659.0866 390.62244 659.0866 390.62244L659.0866 390.62244L639.03143 373.12207L581.0866 374.62207z" stroke="none" fill="#E5E5E5" fill-rule="nonzero" />
    <path transform="matrix(1 0 0 1 -275.5 -150.1205)"  d="M675.0866 335.67578C 675.0866 366.97687 646.14374 362.2425 610.4409 362.2425C 574.7381 362.2425 545.7953 366.97687 545.7953 335.67578C 545.7953 304.3747 559.93317 248.89117 610.4409 248.89117C 662.6888 248.89119 675.0866 304.3747 675.0866 335.67578z" stroke="none" fill="#2F2E41" fill-rule="nonzero" />
    <path transform="matrix(0.7071067 -0.7071068 0.7071068 0.7071067 -318.98196 375.95297)"  d="M656.78625 315.52408C 656.78625 327.53638 652.5393 337.78955 644.0453 346.2835C 635.55133 354.7775 625.2982 359.02448 613.2859 359.02448C 601.2736 359.02448 591.0205 354.7775 582.5265 346.2835C 574.03253 337.78955 569.7855 327.53638 569.7855 315.52408C 569.7855 303.51178 574.03253 293.25864 582.5265 284.76465C 591.0205 276.2707 601.2736 272.02368 613.2859 272.02368C 625.2982 272.02368 635.55133 276.2707 644.0453 284.76465C 652.5393 293.25864 656.78625 303.51178 656.78625 315.52408C 656.78625 316.03027 656.77747 316.53632 656.75977 317.0422" stroke="none" fill="#FFB7B7" fill-rule="nonzero" />
    <path transform="matrix(1 0 0 1 -275.5 -150.1205)"  d="M559.9642 314.42236L577.16943 314.42236L584.7598 293.169L586.2775 314.42236L594.5009 314.42236L598.9287 302.02457L599.8143 314.42236L660.9177 314.42236C 660.9177 302.20944 656.06616 290.4967 647.4303 281.86084C 638.7945 273.225 627.0817 268.37344 614.8688 268.37344L614.8688 268.37344L606.0131 268.37344C 593.8002 268.37344 582.0874 273.225 573.45154 281.86084C 564.81573 290.4967 559.9641 302.20944 559.9642 314.42236z" stroke="none" fill="#2F2E41" fill-rule="nonzero" />
    <path d="M291.5866 229.50156L378.5866 229.50156L378.5866 334.50156L291.5866 334.50156z" stroke="none" fill="#6C63FF" fill-rule="nonzero" />
    <path d="M296.381 527.602L304.563 548.895L390.587 527.472L378.512 496.045L296.381 527.602L296.381 527.602" stroke="none" fill="#FFB7B7" fill-rule="nonzero" />
    <path transform="matrix(1 0 0 1 -275.5 -150.1205)"  d="M576.7468 669.61957L592.8585 711.55365L592.8592 711.55536C 598.5284 726.3146 591.1605 742.8751 576.402 748.5459L576.402 748.5459L575.53357 748.8795L549.1543 680.2212L576.7468 669.61957z" stroke="none" fill="#2F2E41" fill-rule="nonzero" />
    <path transform="matrix(1 0 0 1 -275.5 -150.1205)"  d="M743.83466 570.3528C 750.74536 568.6198 757.90936 568.1304 764.99164 568.9073C 770.6477 569.5304 776.4752 571.1043 780.6048 575.0191C 785.6311 579.78406 787.24603 587.1531 787.3808 594.07776C 787.6018 607.8698 783.0274 621.3107 774.43896 632.10474C 772.34174 634.83484 769.8477 637.2357 767.0398 639.2276C 764.01074 641.12244 760.7824 642.6782 757.4131 643.86676L757.4131 643.86676L682.6853 673.3416C 663.02606 681.0958 643.2974 688.87244 622.7918 693.9844C 620.47015 695.10516 617.67957 694.13165 616.55884 691.81C 616.5424 691.77594 616.52637 691.7417 616.51074 691.70715C 609.9634 682.3548 604.47064 672.3071 600.1325 661.7471C 599.7156 661.2378 599.5732 660.5572 599.7508 659.92346C 599.92847 659.28973 600.4039 658.78235 601.0248 658.5639L601.0248 658.5639L653.8804 628.1947C 657.6664 626.01935 661.4947 623.8127 664.63837 620.7823C 666.9227 618.5685 668.7932 615.9644 670.1616 613.09283C 671.2572 610.80444 671.35944 605.4042 672.7589 603.7127C 674.1291 602.05664 678.8163 601.92444 680.9811 601.2731C 684.0341 600.3379 687.0239 599.20764 689.9321 597.8894C 701.7555 592.6 712.28406 584.9148 723.6184 578.72144C 729.97546 575.08673 736.7686 572.2747 743.83466 570.3528z" stroke="none" fill="#2F2E41" fill-rule="nonzero" />
    <path transform="matrix(1 0 0 1 -275.5 -150.1205)"  d="M713.87024 593.03235C 704.7895 599.85266 693.0315 606.1221 684.0315 613.1221C 680.9599 615.51105 629.7555 644.2987 629.0315 648.1221C 637.428 649.5368 690.9145 612.119 698.567 608.3853C 706.21954 604.6516 713.00336 599.3863 719.72546 594.15985C 721.43854 592.82794 728.69855 588.824 723.7808 587.3359C 721.01056 586.49756 715.91547 591.6689 713.87024 593.03235z" stroke="none" fill="#000000" fill-rule="nonzero" fill-opacity="0.09803922" />
    <path d="M632.83466 148.46738C 632.83466 157.09625 629.7839 164.46144 623.6823 170.56297C 617.5808 176.6645 610.21564 179.71527 601.58673 179.71527C 592.9579 179.71527 585.59265 176.6645 579.49115 170.56297C 573.38965 164.46144 570.33887 157.09625 570.3388 148.46738C 570.33887 139.83852 573.38965 132.47331 579.49115 126.37177C 585.59265 120.27024 592.9579 117.219475 601.58673 117.219475C 610.21564 117.219475 617.5808 120.27024 623.6823 126.37177C 629.7839 132.47331 632.83466 139.83852 632.83466 148.46738C 632.83466 148.83101 632.8283 149.19452 632.8156 149.5579" stroke="none" fill="#F1F1F1" fill-rule="nonzero" />
    <path d="M565.675 163.39174C 565.675 169.44482 563.5349 174.61147 559.2547 178.89163C 554.9746 183.17181 549.808 185.31192 543.7548 185.3119C 537.7018 185.31192 532.53516 183.17181 528.25494 178.89163C 523.97473 174.61147 521.83466 169.44482 521.83466 163.39174C 521.83466 157.33865 523.97473 152.17203 528.25494 147.89185C 532.53516 143.61166 537.7018 141.47157 543.7548 141.47157C 549.808 141.47157 554.9746 143.61166 559.2547 147.89185C 563.5349 152.17203 565.675 157.33865 565.675 163.39174C 565.675 163.64682 565.67053 163.90182 565.6616 164.15674" stroke="none" fill="#F1F1F1" fill-rule="nonzero" />
    <path d="M159.78934 153.43677C 159.78934 158.29025 158.07338 162.43297 154.64143 165.86488C 151.20952 169.29683 147.0668 171.01279 142.21332 171.01279C 137.35983 171.01279 133.21713 169.29683 129.7852 165.86488C 126.35327 162.43297 124.63731 158.29025 124.6373 153.43677C 124.63731 148.58328 126.35327 144.44058 129.7852 141.00865C 133.21713 137.57672 137.35983 135.86075 142.21332 135.86075C 147.0668 135.86075 151.20952 137.57672 154.64143 141.00865C 158.07338 144.44058 159.78934 148.58328 159.78934 153.43677C 159.78934 153.6413 159.78577 153.84576 159.77863 154.05016" stroke="none" fill="#F1F1F1" fill-rule="nonzero" />
    <path d="M183.4799 170.50224C 183.4799 173.90692 182.27617 176.813 179.86868 179.22047C 177.46121 181.62796 174.55515 182.8317 171.15045 182.8317C 167.74577 182.8317 164.83969 181.62796 162.43222 179.22047C 160.02475 176.813 158.821 173.90692 158.821 170.50224C 158.821 167.09756 160.02475 164.19148 162.43222 161.78401C 164.83969 159.37654 167.74577 158.17279 171.15045 158.17279C 174.55515 158.17279 177.46121 159.37654 179.86868 161.78401C 182.27617 164.19148 183.4799 167.09756 183.4799 170.50224C 183.4799 170.64572 183.4774 170.78915 183.4724 170.93254" stroke="none" fill="#F1F1F1" fill-rule="nonzero" />
    <path d="M355.08887 13.43526C 355.08887 17.14531 353.7772 20.31203 351.15378 22.93543C 348.53036 25.55883 345.36365 26.87053 341.6536 26.87053C 337.94354 26.87053 334.77682 25.55883 332.1534 22.93543C 329.53003 20.31203 328.21832 17.14531 328.21832 13.43526C 328.21832 9.725213 329.53003 6.5584893 332.1534 3.935089C 334.77682 1.3116894 337.94354 -1.04904175E-05 341.6536 -1.04904175E-05C 345.36365 -1.04904175E-05 348.53036 1.3116894 351.15378 3.935089C 353.7772 6.5584893 355.08887 9.725213 355.08887 13.43526C 355.08887 13.591602 355.08615 13.747897 355.0807 13.904144" stroke="none" fill="#F1F1F1" fill-rule="nonzero" />
    <path transform="matrix(1 0 0 1 -275.5 -150.1205)"  d="M537.0866 446.6224L538.28754 437.35214C 538.28754 437.35214 583.0866 440.6224 576.0866 451.6224C 569.0866 462.6224 552.0866 463.6224 552.0866 463.6224L552.0866 463.6224L537.0866 446.6224z" stroke="none" fill="#2F2E41" fill-rule="nonzero" fill-opacity="0.16862746" />
    <path transform="matrix(1 0 0 1 -275.5 -150.1205)"  d="M570.9026 406.315C 576.09863 406.88702 580.7664 409.75314 583.6273 414.1282C 586.22876 418.1123 587.093 422.98495 586.02045 427.6207C 584.94794 432.25647 582.0314 436.2544 577.94446 438.69107C 577.2028 439.12912 576.42865 439.50964 575.62885 439.82925L575.62885 439.82925L548.0926 524.05676C 545.9211 528.57794 541.49536 531.59064 536.49286 531.953C 531.4904 532.31537 526.6767 529.9719 523.87634 525.8109C 521.0759 521.6499 520.71747 516.3081 522.93677 511.8102L522.93677 511.8102L552.22076 428.5177C 550.60077 422.92093 551.8802 416.88486 555.6315 412.4266C 559.38275 407.96832 565.1112 405.67578 570.9026 406.315z" stroke="none" fill="#FFB7B7" fill-rule="nonzero" />
    <path transform="matrix(1 0 0 1 -275.5 -150.1205)"  d="M537.4976 438.1421C 537.4976 438.1421 553.27563 465.09943 576.0866 451.6224L576.0866 451.6224L553.9799 536.2208L535.3543 536.2208L516.0866 532.6224L521.4815 497.66962L537.4976 438.1421z" stroke="none" fill="#E5E5E5" fill-rule="nonzero" />
    <path transform="matrix(1 0 0 1 -275.5 -150.1205)"  d="M650.1575 456.5673L637.0866 438.6224C 637.0866 438.6224 643.3688 420.0094 667.72766 426.81592C 667.72766 426.81592 683.22833 461.51218 650.1575 456.5673z" stroke="none" fill="#E5E5E5" fill-rule="nonzero" />
    <path transform="matrix(1 0 0 1 -275.5 -150.1205)"  d="M650.1575 456.5673L637.0866 438.6224C 637.0866 438.6224 643.3688 420.0094 667.72766 426.81592C 667.72766 426.81592 683.22833 461.51218 650.1575 456.5673z" stroke="none" fill="#2F2E41" fill-rule="nonzero" fill-opacity="0.16862746" />
    <path transform="matrix(1 0 0 1 -275.5 -150.1205)"  d="M653.6182 393.8712C 661.4114 397.494 665.38074 406.27383 662.9524 414.51776L662.9524 414.51776L692.2364 497.8103C 694.45654 502.30835 694.0985 507.65076 691.2981 511.81235C 688.4976 515.97394 683.6834 518.3176 678.6804 517.95496C 673.6775 517.5923 669.2516 514.57886 667.08057 510.05685L667.08057 510.05685L639.5444 425.8293C 638.74457 425.50967 637.9704 425.12918 637.22876 424.69113C 633.14185 422.25446 630.2253 418.25653 629.1527 413.6208C 628.0802 408.98502 628.94446 404.11237 631.5459 400.12827C 634.4068 395.7532 639.0746 392.8871 644.2706 392.31506C 647.47064 391.9524 650.7083 392.49136 653.6182 393.8712z" stroke="none" fill="#FFB7B7" fill-rule="nonzero" />
    <path transform="matrix(1 0 0 1 -275.5 -150.1205)"  d="M637.0866 438.6224C 637.0866 438.6224 658.6523 451.7079 667.72766 426.81592L667.72766 426.81592L698.11646 506.83L689.0866 522.6224L687.78076 522.73126C 676.84576 523.6429 666.16064 519.1249 659.19684 510.645C 652.1995 502.12436 647.4361 491.99414 645.3372 481.1702L645.3372 481.1702L637.0866 438.6224z" stroke="none" fill="#E5E5E5" fill-rule="nonzero" />
</g>
</svg>