<?xml version="1.0" encoding="UTF-8"?>
<svg xmlns="http://www.w3.org/2000/svg" xmlns:xlink="http://www.w3.org/1999/xlink" width="769px" height="500px" viewBox="0 0 769 500" version="1.1">
<g id="surface1">
<path style=" stroke:none;fill-rule:nonzero;fill:rgb(42.352941%,38.823529%,100%);fill-opacity:1;" d="M 609.082031 497.75 L 594.320312 497.75 C 590.734375 497.746094 587.824219 494.835938 587.820312 491.25 L 587.820312 368.234375 C 587.824219 364.648438 590.734375 361.738281 594.320312 361.734375 L 609.082031 361.734375 C 612.667969 361.738281 615.574219 364.648438 615.582031 368.234375 L 615.582031 491.25 C 615.574219 494.835938 612.667969 497.746094 609.082031 497.75 Z M 609.082031 497.75 "/>
<path style=" stroke:none;fill-rule:nonzero;fill:rgb(42.352941%,38.823529%,100%);fill-opacity:1;" d="M 568.886719 497.75 L 554.128906 497.75 C 550.539062 497.746094 547.632812 494.835938 547.628906 491.25 L 547.628906 368.234375 C 547.632812 364.648438 550.539062 361.738281 554.128906 361.734375 L 568.886719 361.734375 C 572.476562 361.738281 575.382812 364.648438 575.386719 368.234375 L 575.386719 491.25 C 575.382812 494.835938 572.476562 497.746094 568.886719 497.75 Z M 568.886719 497.75 "/>
<path style=" stroke:none;fill-rule:nonzero;fill:rgb(18.431373%,18.039216%,25.490196%);fill-opacity:1;" d="M 575.128906 468.5 L 546.128906 468.5 C 543.644531 468.496094 541.632812 466.484375 541.628906 464 L 541.628906 363 C 541.632812 360.515625 543.644531 358.503906 546.128906 358.5 L 575.128906 358.5 C 577.613281 358.503906 579.628906 360.515625 579.628906 363 L 579.628906 464 C 579.628906 466.484375 577.613281 468.496094 575.128906 468.5 Z M 575.128906 468.5 "/>
<path style=" stroke:none;fill-rule:nonzero;fill:rgb(18.431373%,18.039216%,25.490196%);fill-opacity:1;" d="M 616.128906 468.5 L 587.128906 468.5 C 584.644531 468.496094 582.632812 466.484375 582.628906 464 L 582.628906 363 C 582.632812 360.515625 584.644531 358.503906 587.128906 358.5 L 616.128906 358.5 C 618.613281 358.503906 620.628906 360.515625 620.628906 363 L 620.628906 464 C 620.628906 466.484375 618.613281 468.496094 616.128906 468.5 Z M 616.128906 468.5 "/>
<path style=" stroke:none;fill-rule:nonzero;fill:rgb(42.352941%,38.823529%,100%);fill-opacity:1;" d="M 566.652344 293.488281 C 566.242188 293.773438 565.8125 294.035156 565.375 294.277344 L 463.757812 349.460938 C 460.601562 351.175781 456.65625 350.007812 454.941406 346.851562 L 447.898438 333.878906 L 448.339844 333.640625 L 447.898438 333.878906 C 446.191406 330.726562 447.359375 326.78125 450.507812 325.066406 L 552.125 269.882812 C 558.605469 266.363281 566.707031 268.527344 570.570312 274.804688 C 574.433594 281.085938 572.714844 289.289062 566.652344 293.488281 Z M 566.652344 293.488281 "/>
<path style=" stroke:none;fill-rule:nonzero;fill:rgb(42.352941%,38.823529%,100%);fill-opacity:1;" d="M 633.664062 182.355469 C 633.664062 210.523438 610.828125 233.355469 582.664062 233.355469 C 554.496094 233.355469 531.664062 210.523438 531.664062 182.355469 C 531.664062 154.191406 554.496094 131.355469 582.664062 131.355469 C 610.828125 131.355469 633.664062 154.191406 633.664062 182.355469 Z M 633.664062 182.355469 "/>
<path style=" stroke:none;fill-rule:nonzero;fill:rgb(18.431373%,18.039216%,25.490196%);fill-opacity:1;" d="M 588.625 203.765625 C 585.320312 203.671875 581.207031 203.558594 578.035156 201.242188 C 576.125 199.789062 574.953125 197.566406 574.835938 195.171875 C 574.71875 193.464844 575.40625 191.800781 576.695312 190.675781 C 578.351562 189.277344 580.769531 188.949219 583.375 189.714844 L 580.675781 169.992188 L 582.65625 169.71875 L 585.828125 192.910156 L 584.175781 192.148438 C 582.257812 191.269531 579.625 190.820312 577.988281 192.203125 C 577.171875 192.9375 576.746094 194.007812 576.835938 195.101562 C 576.933594 196.882812 577.800781 198.535156 579.214844 199.628906 C 581.683594 201.429688 584.960938 201.664062 588.679688 201.765625 Z M 588.625 203.765625 "/>
<path style=" stroke:none;fill-rule:nonzero;fill:rgb(18.431373%,18.039216%,25.490196%);fill-opacity:1;" d="M 560.105469 171.691406 L 570.875 171.691406 L 570.875 173.691406 L 560.105469 173.691406 Z M 560.105469 171.691406 "/>
<path style=" stroke:none;fill-rule:nonzero;fill:rgb(18.431373%,18.039216%,25.490196%);fill-opacity:1;" d="M 594.105469 171.691406 L 604.875 171.691406 L 604.875 173.691406 L 594.105469 173.691406 Z M 594.105469 171.691406 "/>
<path style=" stroke:none;fill-rule:nonzero;fill:rgb(18.431373%,18.039216%,25.490196%);fill-opacity:1;" d="M 586.230469 131.207031 C 586.992188 119.007812 593.003906 107.738281 602.71875 100.320312 C 612.765625 92.878906 625.652344 90.421875 637.734375 93.640625 C 649.738281 96.761719 659.644531 105.214844 664.617188 116.582031 C 667.085938 122.148438 668.316406 128.183594 668.226562 134.273438 C 667.953125 140.894531 666.308594 147.386719 663.394531 153.339844 C 660.386719 159.890625 656.59375 166.039062 653.300781 172.445312 C 650.054688 178.761719 647.257812 185.296875 644.921875 192 C 640.175781 205.664062 637.375 219.929688 636.601562 234.375 C 635.378906 257.144531 637.554688 290.390625 663.261719 299.128906 C 669.800781 301.351562 676.851562 301.765625 683.703125 301.746094 C 690.921875 301.835938 698.121094 300.992188 705.125 299.238281 C 717.261719 295.996094 728.78125 288.386719 733.949219 276.566406 C 735.140625 273.835938 735.941406 270.949219 736.324219 267.996094 C 736.429688 267.1875 735.558594 266.503906 734.824219 266.496094 C 734.003906 266.515625 733.34375 267.175781 733.324219 267.996094 C 731.648438 280.59375 721.152344 290.253906 709.753906 294.597656 C 703.09375 297.011719 696.097656 298.367188 689.019531 298.609375 C 681.972656 298.964844 674.65625 298.910156 667.757812 297.289062 C 661.613281 295.960938 656.027344 292.785156 651.742188 288.1875 C 647.925781 283.789062 645.074219 278.636719 643.382812 273.0625 C 639.328125 260.679688 638.902344 247.0625 639.613281 234.152344 C 640.421875 219.753906 643.28125 205.546875 648.113281 191.960938 C 650.550781 185.101562 653.492188 178.429688 656.914062 172.003906 C 660.257812 165.714844 663.96875 159.605469 666.785156 153.054688 C 669.535156 147.03125 671.046875 140.519531 671.230469 133.902344 C 671.253906 127.789062 670.035156 121.738281 667.65625 116.109375 C 662.917969 104.679688 653.527344 95.816406 641.84375 91.746094 C 629.960938 87.609375 616.882812 88.683594 605.828125 94.699219 C 595.324219 100.734375 587.671875 110.71875 584.574219 122.429688 C 583.828125 125.300781 583.378906 128.242188 583.230469 131.207031 C 583.132812 133.136719 586.132812 133.128906 586.230469 131.207031 Z M 586.230469 131.207031 "/>
<path style=" stroke:none;fill-rule:nonzero;fill:rgb(18.431373%,18.039216%,25.490196%);fill-opacity:1;" d="M 596.203125 132.257812 C 597.023438 126.695312 599.8125 121.609375 604.0625 117.925781 C 608.578125 114.140625 614.371094 112.21875 620.257812 112.550781 C 622.1875 112.648438 622.179688 109.648438 620.257812 109.550781 C 607.015625 108.953125 595.425781 118.375 593.3125 131.460938 C 593.023438 133.351562 595.914062 134.164062 596.203125 132.257812 Z M 596.203125 132.257812 "/>
<path style=" stroke:none;fill-rule:nonzero;fill:rgb(18.431373%,18.039216%,25.490196%);fill-opacity:1;" d="M 597.28125 136.207031 C 596.695312 136.207031 596.117188 136.113281 595.5625 135.929688 L 581.316406 131.226562 C 578.433594 130.273438 576.867188 127.164062 577.820312 124.28125 C 578.769531 121.394531 581.882812 119.832031 584.765625 120.78125 L 599.007812 125.484375 C 601.574219 126.332031 603.144531 128.917969 602.714844 131.582031 C 602.285156 134.25 599.980469 136.210938 597.28125 136.207031 Z M 597.28125 136.207031 "/>
<path style=" stroke:none;fill-rule:nonzero;fill:rgb(18.431373%,18.039216%,25.490196%);fill-opacity:1;" d="M 599.539062 253 L 597.082031 253 C 597.109375 252.835938 597.125 252.667969 597.128906 252.5 C 597.128906 248.359375 590.863281 245 583.128906 245 C 575.398438 245 569.128906 248.359375 569.128906 252.5 C 569.136719 252.667969 569.152344 252.835938 569.175781 253 L 566.722656 253 C 547.617188 253 532.128906 270.738281 532.128906 292.621094 L 532.128906 375 C 532.128906 377.210938 533.921875 379 536.128906 379 L 630.128906 379 C 632.339844 379 634.128906 377.210938 634.128906 375 L 634.128906 292.621094 C 634.128906 270.738281 618.644531 253 599.539062 253 Z M 599.539062 253 "/>
<path style=" stroke:none;fill-rule:nonzero;fill:rgb(42.352941%,38.823529%,100%);fill-opacity:1;" d="M 178.738281 181.113281 C 175.894531 181.117188 173.121094 180.199219 170.84375 178.492188 L 170.703125 178.382812 L 140.96875 155.636719 C 135.199219 151.191406 134.117188 142.914062 138.546875 137.132812 C 142.980469 131.351562 151.253906 130.246094 157.046875 134.664062 L 176.308594 149.433594 L 221.820312 90.058594 C 226.257812 84.269531 234.550781 83.175781 240.339844 87.613281 L 240.34375 87.617188 L 240.058594 88.007812 L 240.351562 87.617188 C 246.132812 92.058594 247.226562 100.347656 242.792969 106.136719 L 189.261719 175.945312 C 186.75 179.207031 182.867188 181.109375 178.75 181.097656 Z M 178.738281 181.113281 "/>
<path style=" stroke:none;fill-rule:nonzero;fill:rgb(24.705882%,23.921569%,33.72549%);fill-opacity:1;" d="M 345.628906 266 L 1 266 C 0.449219 266 0 265.550781 0 265 L 0 1 C 0 0.449219 0.449219 0 1 0 L 173.316406 0 C 173.867188 0 174.316406 0.449219 174.316406 1 C 174.316406 1.550781 173.867188 2 173.316406 2 L 2 2 L 2 264 L 344.628906 264 L 344.628906 133 C 344.628906 132.449219 345.078125 132 345.628906 132 C 346.183594 132 346.628906 132.449219 346.628906 133 L 346.628906 265 C 346.628906 265.550781 346.183594 266 345.628906 266 Z M 345.628906 266 "/>
<path style=" stroke:none;fill-rule:nonzero;fill:rgb(18.431373%,18.039216%,25.490196%);fill-opacity:1;" d="M 488.570312 343.359375 C 488.171875 343.359375 487.777344 343.304688 487.398438 343.203125 C 486.242188 342.898438 485.257812 342.140625 484.664062 341.105469 L 468.664062 313.394531 C 467.421875 311.242188 468.160156 308.488281 470.3125 307.246094 L 539.59375 267.246094 C 549.398438 261.585938 561.9375 264.945312 567.597656 274.75 C 573.257812 284.554688 569.898438 297.09375 560.09375 302.753906 L 490.8125 342.753906 C 490.128906 343.148438 489.355469 343.359375 488.570312 343.359375 Z M 488.570312 343.359375 "/>
<path style=" stroke:none;fill-rule:nonzero;fill:rgb(24.705882%,23.921569%,33.72549%);fill-opacity:1;" d="M 768.148438 500 L 387.148438 500 C 386.597656 500 386.148438 499.550781 386.148438 499 C 386.148438 498.449219 386.597656 498 387.148438 498 L 768.148438 498 C 768.703125 498 769.148438 498.449219 769.148438 499 C 769.148438 499.550781 768.703125 500 768.148438 500 Z M 768.148438 500 "/>
<path style=" stroke:none;fill-rule:nonzero;fill:rgb(42.352941%,38.823529%,100%);fill-opacity:1;" d="M 628.261719 402.402344 C 627.125 404.695312 624.75 406.113281 622.191406 406.019531 L 607.441406 405.476562 C 603.855469 405.34375 601.054688 402.328125 601.183594 398.742188 L 605.433594 283.1875 C 605.714844 275.527344 612.152344 269.546875 619.8125 269.828125 C 627.472656 270.109375 633.453125 276.546875 633.171875 284.207031 L 628.925781 399.761719 C 628.890625 400.679688 628.667969 401.578125 628.261719 402.402344 Z M 628.261719 402.402344 "/>
<path style=" stroke:none;fill-rule:nonzero;fill:rgb(18.431373%,18.039216%,25.490196%);fill-opacity:1;" d="M 633.128906 365.5 L 601.128906 365.5 C 598.644531 365.496094 596.632812 363.484375 596.628906 361 L 596.628906 281 C 596.628906 269.679688 605.808594 260.5 617.128906 260.5 C 628.453125 260.5 637.628906 269.679688 637.628906 281 L 637.628906 361 C 637.628906 363.484375 635.613281 365.496094 633.128906 365.5 Z M 633.128906 365.5 "/>
</g>
</svg>
